<?xml version="1.0" encoding="utf-8"?>
<!-- Generator: Adobe Illustrator 19.2.0, SVG Export Plug-In . SVG Version: 6.00 Build 0)  -->
<svg version="1.1" baseProfile="tiny" id="Layer_1" xmlns="http://www.w3.org/2000/svg" xmlns:xlink="http://www.w3.org/1999/xlink"
	 x="0px" y="0px" viewBox="0 0 100 100" xml:space="preserve">
<path id="svg_394" fill="#535152" d="M94.6,56.8l0.2,0c0-0.2,0-0.4,0.1-0.6c0-0.5,0.1-1,0.2-1.5
	c0-0.2,0.1-0.4,0.1-0.6l-0.3,0c0,0.2-0.1,0.3-0.1,0.5c0,0.1-0.1,0.2-0.1,0.2c0,0-0.1,0.1-0.2,0.1c-0.1,0-0.2,0-0.4,0l-3.9-0.5
	c-0.1,0-0.3,0-0.4-0.1c-0.2-0.1-0.2-0.2-0.3-0.4c0-0.2,0-0.3,0-0.5l-0.2,0c0,0.2-0.1,0.4-0.1,0.6l-0.1,0.4c0,0.2-0.1,0.4-0.1,0.7
	L89,55.4c0,0.2-0.1,0.4-0.1,0.6l0.2,0c0-0.2,0.1-0.3,0.1-0.5c0-0.1,0.1-0.2,0.1-0.2c0.1,0,0.1-0.1,0.2-0.1c0.1,0,0.2,0,0.4,0
	l3.9,0.5c0.2,0,0.3,0,0.4,0.1c0.1,0,0.2,0.1,0.2,0.1c0,0.1,0.1,0.1,0.1,0.2C94.6,56.5,94.6,56.6,94.6,56.8 M92.3,62.7l0.4,0.1
	l0.3,0.1c0.1,0,0.3,0.1,0.4,0.1c0-0.2,0.1-0.4,0.1-0.6c0-0.1,0-0.2,0.1-0.2c0.1-0.5,0.2-0.9,0.4-1.4c0.1-0.2,0.1-0.4,0.1-0.6
	c0.1-0.4,0.2-0.8,0.3-1.2c0.1-0.2,0.1-0.4,0.2-0.6l-0.2-0.1c-0.1,0.2-0.1,0.3-0.2,0.5c-0.1,0.1-0.1,0.2-0.2,0.2
	c-0.1,0-0.1,0.1-0.2,0c-0.1,0-0.2,0-0.4-0.1l-3.9-1c-0.1,0-0.3-0.1-0.4-0.1C89,57.9,89,57.8,89,57.6c0-0.2,0-0.3,0.1-0.5L88.8,57
	c-0.1,0.2-0.1,0.4-0.1,0.6L88.6,58c0,0.1-0.1,0.2-0.1,0.3l-0.7,2.3l-0.1,0.2c0,0.1-0.1,0.2-0.1,0.2c0,0.1-0.1,0.2-0.1,0.2
	c0,0.1-0.1,0.2-0.1,0.3c0.3,0.1,0.5,0.2,0.8,0.3c0.3,0.1,0.5,0.2,0.8,0.3l0.1-0.2c-0.2-0.1-0.4-0.3-0.6-0.4
	c-0.1-0.1-0.2-0.3-0.3-0.4c-0.1-0.1-0.1-0.3-0.1-0.5c0-0.4,0.2-0.9,0.3-1.2c0.1-0.2,0.2-0.3,0.3-0.3c0.1-0.1,0.2-0.1,0.4-0.1
	c0.5,0,1.6,0.4,1.9,0.4c-0.1,0.3-0.2,0.7-0.3,1.1c-0.1,0.1-0.1,0.2-0.2,0.3C90.5,61,90.4,61,90.3,61c-0.2,0-0.3,0-0.5,0l-0.1,0.2
	c0.2,0,0.3,0.1,0.5,0.1c0.1,0,0.2,0,0.3,0.1c0.2,0,0.3,0.1,0.5,0.1c0.1,0,0.2,0.1,0.3,0.1c0.2,0,0.3,0.1,0.5,0.1l0.1-0.2
	c-0.1-0.1-0.3-0.1-0.4-0.2c-0.1-0.1-0.2-0.2-0.2-0.3c0-0.1-0.1-0.3-0.1-0.4c0-0.4,0.1-0.7,0.2-1l2.3,0.6c-0.1,0.5-0.2,1-0.5,1.4
	c-0.1,0.2-0.3,0.4-0.4,0.5c-0.1,0.1-0.3,0.2-0.4,0.2c-0.2,0-0.4,0-0.6,0.1l-0.1,0.2C92,62.7,92.1,62.7,92.3,62.7 M84.8,67.9l4.1,1.9
	c0.2,0.1,0.4,0.2,0.6,0.3c0.1,0.1,0.2,0.2,0.3,0.3c0.1,0.1,0.1,0.2,0.1,0.3c0,0.2-0.1,0.3-0.1,0.5l0.2,0.1c0.1-0.1,0.1-0.3,0.2-0.4
	c0.2-0.4,0.3-0.8,0.5-1.2c0.1-0.2,0.1-0.3,0.2-0.5l-0.2-0.1c-0.1,0.2-0.2,0.3-0.3,0.5c-0.1,0.1-0.2,0.1-0.2,0.1c-0.1,0-0.2,0-0.4,0
	c-0.2-0.1-0.4-0.1-0.7-0.3l-2.6-1.2l-0.1,0l5.8-1.8l0.5-1.1l-0.2-0.1c-0.1,0.2-0.2,0.3-0.3,0.5c-0.1,0.1-0.1,0.1-0.3,0.1
	c-0.1,0-0.3,0-0.5-0.1c-0.8-0.3-2.8-1.3-3.1-1.4c-0.2-0.1-0.4-0.2-0.6-0.3c-0.1-0.1-0.2-0.2-0.3-0.3c-0.1-0.1-0.1-0.2-0.1-0.3
	c0-0.2,0.1-0.3,0.1-0.5l-0.2-0.1c-0.1,0.1-0.1,0.3-0.2,0.4L87,63.5c-0.1,0.2-0.2,0.4-0.2,0.5l-0.2,0.3c-0.1,0.2-0.2,0.3-0.2,0.5
	l0.2,0.1c0.1-0.2,0.2-0.3,0.3-0.5c0.1-0.1,0.2-0.1,0.3-0.2c0.1,0,0.2,0,0.4,0c0.2,0,0.4,0.1,0.7,0.3l2.6,1.2l0.1,0l-5.9,1.8
	L84.8,67.9L84.8,67.9z M85.5,74.8c0.1,0.1,0.3,0.2,0.4,0.3c0.2,0.1,0.4,0.3,0.6,0.4l0.3,0.2l0.1-0.1c0.1-0.1,0.1-0.2,0.2-0.3
	c0.1-0.1,0.1-0.1,0.2-0.2c0.1-0.1,0.2-0.2,0.2-0.2c0.3-0.3,0.5-0.7,0.6-1c0.1-0.2,0.1-0.5,0.1-0.7c0-0.2-0.1-0.4-0.2-0.6
	c-0.2-0.4-0.6-0.6-1-0.7c-0.2,0-0.4,0-0.6,0c-0.2,0-0.4,0.1-0.6,0.2c-0.2,0.1-0.4,0.2-0.7,0.3c-0.2,0.1-0.4,0.2-0.6,0.3
	c-0.2,0.1-0.3,0.1-0.5,0.2c-0.1,0-0.3,0-0.4,0c-0.2,0-0.5-0.2-0.6-0.4c-0.1-0.1-0.2-0.2-0.2-0.3c0-0.1,0-0.3,0-0.4
	c0.1-0.3,0.4-0.8,0.7-1c0.2-0.1,0.3-0.2,0.5-0.2c0.2,0,0.4,0,0.6,0c0.2,0,0.4,0.1,0.6,0.1l0.1-0.2c-0.3-0.1-0.5-0.2-0.8-0.4
	c-0.2-0.1-0.5-0.3-0.7-0.4c-0.1,0.1-0.2,0.3-0.3,0.4c-0.1,0.1-0.2,0.2-0.2,0.3c-0.4,0.4-0.7,0.8-0.9,1.4c-0.1,0.3-0.1,0.5-0.1,0.8
	c0,0.3,0.1,0.5,0.2,0.7c0.2,0.4,0.6,0.7,1,0.8c0.2,0,0.3,0,0.5,0c0.2,0,0.4-0.1,0.6-0.2c0.2-0.1,0.5-0.2,0.8-0.4
	c0.3-0.1,0.5-0.2,0.7-0.3c0.2-0.1,0.3-0.1,0.5-0.1c0.1,0,0.2,0,0.3,0c0.2,0.1,0.4,0.2,0.5,0.4c0.1,0.1,0.1,0.2,0.2,0.3
	c0,0.1,0.1,0.2,0,0.3c0,0.3-0.3,0.7-0.6,0.8c-0.2,0.1-0.3,0.1-0.5,0.2c-0.2,0-0.3,0-0.5-0.1c-0.2-0.1-0.4-0.1-0.6-0.2L85.5,74.8
	L85.5,74.8z M80.9,75.6l3.1,2.5c0.1,0.1,0.2,0.2,0.3,0.3c0.1,0.1,0.1,0.1,0.1,0.2c0,0.1,0,0.2-0.1,0.2c-0.1,0.2-0.2,0.3-0.3,0.4
	l0.2,0.2c0.1-0.2,0.2-0.3,0.4-0.5c0.3-0.4,0.6-0.8,0.9-1.2c0.1-0.2,0.3-0.3,0.4-0.5l-0.2-0.2c-0.1,0.1-0.2,0.3-0.4,0.4
	c-0.1,0.1-0.2,0.1-0.2,0.1c-0.1,0-0.1,0-0.2,0c-0.1,0-0.2-0.1-0.3-0.2l-3.1-2.5c-0.1-0.1-0.2-0.2-0.3-0.3c-0.1-0.1-0.1-0.3,0-0.5
	c0.1-0.2,0.2-0.3,0.3-0.4l-0.2-0.2c-0.1,0.2-0.2,0.3-0.4,0.5l-0.3,0.3c-0.1,0.2-0.3,0.3-0.4,0.5l-0.3,0.3c-0.1,0.2-0.3,0.3-0.4,0.5
	l0.2,0.2c0.1-0.1,0.2-0.3,0.4-0.4c0.1-0.1,0.2-0.1,0.2-0.1c0.1,0,0.1,0,0.2,0C80.6,75.4,80.7,75.5,80.9,75.6 M76.8,78.9
	c0,0.3,0,0.5,0,0.7c0.1,0.4,0.4,0.8,0.8,1c0.2,0.1,0.3,0.1,0.5,0.1c0.2,0,0.4,0,0.7-0.1c0.2,0,0.5-0.1,0.9-0.2
	c0.3-0.1,0.5-0.1,0.7-0.1c0.2,0,0.3,0,0.5,0c0.1,0,0.2,0,0.3,0.1c0.2,0.1,0.3,0.3,0.4,0.5c0.1,0.1,0.1,0.2,0.1,0.3
	c0,0.1,0,0.2,0,0.3c-0.1,0.3-0.5,0.6-0.7,0.7c-0.2,0.1-0.3,0.1-0.5,0c-0.2,0-0.3-0.1-0.5-0.2c-0.2-0.1-0.4-0.2-0.6-0.3l-0.2,0.2
	c0.1,0.1,0.2,0.2,0.4,0.3l0.3,0.3l0.2,0.2l0.3,0.3l0.1-0.1c0.1-0.1,0.2-0.1,0.3-0.2c0.1-0.1,0.2-0.1,0.3-0.2
	c0.1-0.1,0.2-0.1,0.3-0.2c0.3-0.2,0.6-0.5,0.8-0.9c0.1-0.2,0.2-0.4,0.2-0.6c0-0.2,0-0.4,0-0.6c-0.1-0.4-0.4-0.7-0.8-0.9
	c-0.2-0.1-0.3-0.1-0.5-0.1c-0.2,0-0.4,0-0.6,0.1c-0.2,0-0.5,0.1-0.8,0.2c-0.3,0.1-0.5,0.1-0.7,0.1c-0.2,0-0.4,0.1-0.5,0
	c-0.1,0-0.3,0-0.3-0.1c-0.2-0.1-0.4-0.3-0.5-0.5c-0.1-0.1-0.1-0.2-0.1-0.4c0-0.1,0-0.3,0.1-0.4c0.1-0.3,0.5-0.7,0.9-0.8
	c0.2-0.1,0.4-0.1,0.6-0.1c0.2,0,0.4,0.1,0.6,0.1c0.2,0.1,0.4,0.2,0.6,0.3l0.2-0.2c-0.2-0.2-0.4-0.4-0.7-0.6
	c-0.2-0.2-0.4-0.4-0.6-0.6c-0.1,0.1-0.2,0.2-0.4,0.3c-0.1,0.1-0.2,0.1-0.3,0.2c-0.5,0.3-0.9,0.7-1.1,1.1
	C76.9,78.4,76.8,78.7,76.8,78.9 M66.5,85.6c0.1,0,0.2,0,0.2,0c0.1,0,0.2,0.1,0.3,0.1c0.1,0.1,0.2,0.1,0.4,0.2l2.3,1.2L69.4,89
	c0,0.2-0.1,0.3-0.1,0.5c0,0.2-0.1,0.3-0.2,0.4c-0.1,0.1-0.1,0.3-0.2,0.4c-0.1,0.1-0.3,0.2-0.5,0.3l0.1,0.2c0.1-0.1,0.3-0.2,0.4-0.2
	c0.1-0.1,0.2-0.1,0.3-0.2c0.2-0.1,0.3-0.2,0.5-0.3c0.1,0,0.2-0.1,0.2-0.1l0.3-0.2l-0.1-0.2c-0.1,0.1-0.3,0.1-0.4,0.1
	c-0.2,0-0.2-0.2-0.2-0.3c0-0.1,0-0.3,0.1-0.4l0.3-1.8l-0.1,0c0.3,0.1,0.6,0.3,0.8,0.4c0.2,0.1,0.4,0.2,0.5,0.3
	c0.2,0.1,0.3,0.2,0.5,0.2c0.1,0.1,0.3,0.1,0.3,0.2c0.1,0.1,0.1,0.1,0.1,0.1c0.1,0.1-0.3,0.3-0.4,0.3l0.1,0.2
	c0.2-0.1,0.3-0.2,0.5-0.3c0.1-0.1,0.2-0.1,0.3-0.2c0.2-0.1,0.4-0.2,0.5-0.3c0.1-0.1,0.2-0.1,0.3-0.2c0.2-0.1,0.3-0.1,0.5-0.2
	L74,87.8c-0.1,0.1-0.2,0.1-0.4,0.1c-0.1,0-0.2,0-0.3,0c-0.1,0-0.2-0.1-0.3-0.1c-0.1,0-0.2-0.1-0.3-0.2l-2.6-1.3l0.2-2.1
	c0-0.2,0-0.3,0.1-0.4c0.1-0.2,0.2-0.4,0.4-0.5c0.1-0.1,0.3-0.2,0.4-0.3l-0.1-0.2c-0.1,0.1-0.3,0.1-0.4,0.2c-0.4,0.2-0.7,0.4-1.1,0.6
	l-0.5,0.2l0.1,0.2c0.1-0.1,0.2-0.1,0.3-0.1c0.1,0,0.1,0,0.2,0c0.1,0,0.1,0,0.1,0c0.1,0.1,0.2,0.2,0.2,0.3c0,0.1,0,0.2,0,0.4
	l-0.2,1.4l0,0c-0.1-0.1-0.3-0.2-0.5-0.3c-0.4-0.2-0.9-0.5-1.3-0.8c0,0-0.2-0.2-0.3-0.2c-0.1-0.1,0.3-0.3,0.4-0.3L68,84.5
	c-0.1,0.1-0.3,0.2-0.4,0.2c-0.4,0.2-0.7,0.4-1.1,0.6c-0.1,0.1-0.3,0.1-0.4,0.2l0.1,0.2C66.2,85.7,66.3,85.6,66.5,85.6 M62.2,87.1
	c0.2,0,0.3-0.1,0.5-0.1c0.1,0,0.2,0,0.3,0c0.1,0,0.1,0.1,0.2,0.2c0.1,0.1,0.1,0.2,0.2,0.3l1.3,3.7c0,0.1,0.1,0.3,0.1,0.4
	c0,0.2-0.1,0.3-0.2,0.4c-0.1,0.1-0.3,0.2-0.5,0.2l0.1,0.2c0.2-0.1,0.4-0.1,0.6-0.2l0.4-0.1c0.2-0.1,0.4-0.2,0.6-0.2l0.4-0.1
	c0.2-0.1,0.4-0.1,0.6-0.2l-0.1-0.2c-0.2,0-0.3,0.1-0.5,0.1c-0.1,0-0.2,0-0.3,0c-0.1,0-0.1-0.1-0.2-0.2c-0.1-0.1-0.1-0.2-0.2-0.3
	l-1.3-3.7c0-0.1-0.1-0.3-0.1-0.4c0-0.1,0-0.2,0-0.2c0-0.1,0.1-0.1,0.2-0.2c0.1-0.1,0.3-0.2,0.5-0.2L64.7,86
	c-0.2,0.1-0.4,0.1-0.6,0.2c-0.5,0.2-0.9,0.3-1.4,0.5c-0.2,0.1-0.4,0.1-0.6,0.2L62.2,87.1L62.2,87.1z M55.9,88.5
	c-0.2,0-0.3,0.1-0.5,0.1l0.1,0.2c0.1,0,0.2,0,0.3,0c0.1,0,0.2,0.1,0.2,0.1c0.1,0,0.2,0.1,0.3,0.2c0.1,0.1,0.2,0.2,0.3,0.3l1.9,1.8
	l-0.8,1.7c-0.1,0.2-0.1,0.3-0.2,0.4c-0.1,0.1-0.2,0.3-0.3,0.4c-0.1,0.1-0.2,0.2-0.3,0.3c-0.2,0.1-0.3,0.2-0.5,0.2l0.1,0.2
	c0.2,0,0.3-0.1,0.5-0.1c0.1,0,0.2-0.1,0.3-0.1c0.2,0,0.4-0.1,0.5-0.1c0.1,0,0.2,0,0.3,0l0.4-0.1l-0.1-0.2c-0.1,0-0.3,0.1-0.4,0
	c-0.2-0.1-0.1-0.2-0.1-0.3c0-0.1,0.1-0.2,0.2-0.4l0.8-1.7l0,0c0.2,0.2,0.5,0.4,0.7,0.6c0.1,0.1,0.3,0.3,0.4,0.4
	c0.1,0.1,0.3,0.2,0.4,0.4c0.1,0.1,0.2,0.2,0.3,0.3c0.1,0.1,0.1,0.1,0.1,0.1c0,0.1-0.4,0.2-0.4,0.2l0.1,0.2c0.2,0,0.3-0.1,0.5-0.1
	c0.1,0,0.2-0.1,0.3-0.1c0.2-0.1,0.4-0.1,0.6-0.1c0.1,0,0.2,0,0.4-0.1c0.2,0,0.3-0.1,0.5-0.1l-0.1-0.2c-0.1,0-0.2,0-0.4,0
	c-0.1,0-0.2-0.1-0.3-0.1c-0.1,0-0.2-0.1-0.3-0.2c-0.1-0.1-0.2-0.2-0.3-0.2l-2.1-1.9l0.8-1.9c0.1-0.2,0.1-0.3,0.2-0.4
	c0.1-0.2,0.3-0.3,0.5-0.4c0.1-0.1,0.3-0.1,0.4-0.1l-0.1-0.2c-0.1,0-0.3,0.1-0.4,0.1c-0.4,0.1-0.8,0.2-1.2,0.3l-0.5,0.1l0.1,0.3
	c0.1,0,0.2-0.1,0.3,0c0.1,0,0.1,0,0.2,0c0,0,0.1,0,0.1,0.1c0.1,0.1,0.1,0.2,0.1,0.4c0,0.1-0.1,0.2-0.1,0.4l-0.5,1.3l0,0.1
	c-0.1-0.1-0.2-0.2-0.4-0.4c-0.4-0.3-0.7-0.7-1-1.1c0,0-0.2-0.2-0.2-0.3c0-0.1,0.4-0.2,0.4-0.2l-0.1-0.2c-0.2,0-0.3,0.1-0.5,0.1
	C56.7,88.3,56.3,88.4,55.9,88.5 M50.5,88.9c-0.2,0-0.4,0-0.6,0l0,0.3c0.2,0,0.4,0,0.5,0c0.1,0,0.2,0.1,0.2,0.1
	c0.1,0,0.1,0.1,0.1,0.2c0,0.1,0,0.2,0.1,0.4l0.3,3.9c0,0.1,0,0.3,0,0.4c0,0.2-0.1,0.3-0.3,0.3c-0.2,0.1-0.3,0.1-0.5,0.1l0,0.2
	c0.2,0,0.4,0,0.6-0.1l0.4,0c0.1,0,0.3,0,0.3,0l2.4-0.2l0.2,0c0.1,0,0.2,0,0.2,0c0.1,0,0.2,0,0.3,0c0.1,0,0.2,0,0.3,0
	c0-0.3,0-0.6,0-0.8c0-0.3,0-0.6,0-0.9l-0.2,0c-0.1,0.4-0.2,0.8-0.5,1.1c-0.4,0.4-1.2,0.4-1.7,0.4c-0.2,0-0.3-0.1-0.4-0.1
	c-0.1-0.1-0.2-0.2-0.2-0.3c0-0.2-0.1-0.4-0.1-0.6l-0.2-3.4c0-0.2,0-0.3,0-0.4c0-0.1,0-0.2,0.1-0.2c0-0.1,0.1-0.1,0.2-0.1
	c0.2-0.1,0.3-0.1,0.5-0.1l0-0.2c-0.2,0-0.4,0-0.6,0.1C51.5,88.9,51,88.9,50.5,88.9 M43.3,91.4c-0.1,1.3,0.4,2.4,1.6,3
	c0.5,0.3,1.2,0.4,1.8,0.4c0.2,0,0.3,0,0.5,0c0.2,0,0.3,0,0.5,0c0.2,0,0.3,0,0.4,0c0.1-0.3,0.1-0.6,0.2-0.8c0.1-0.3,0.1-0.6,0.2-0.8
	l-0.2,0c-0.1,0.2-0.2,0.4-0.4,0.6c-0.1,0.2-0.2,0.3-0.4,0.5c-0.1,0.1-0.3,0.2-0.5,0.3c-0.5,0.1-1.1,0-1.5-0.2
	c-0.6-0.3-0.9-0.9-1.1-1.5c-0.2-0.7-0.1-1.8,0.2-2.5c0.2-0.3,0.4-0.6,0.6-0.7c0.2-0.2,0.5-0.3,0.8-0.4c0.7-0.2,1.6-0.1,2,0.5
	c0.1,0.1,0.2,0.3,0.2,0.5c0.1,0.2,0.1,0.4,0.2,0.6l0.2,0c0-0.6,0.1-1.1,0.2-1.7c-0.2,0-0.3,0-0.5-0.1c-0.1,0-0.3-0.1-0.4-0.1
	c-0.8-0.2-1.5-0.3-2.3-0.1c-0.4,0.1-0.8,0.3-1.1,0.5c-0.3,0.2-0.6,0.5-0.8,0.9C43.5,90.6,43.3,91,43.3,91.4 M36.9,91.7l1.1-4.2
	c0,0,0.1,0,0.1,0c0.1,0,0.2,0,0.3,0.1c0.1,0,0.2,0,0.3,0.1c0.4,0.1,0.8,0.2,1.1,0.4c0.3,0.2,0.5,0.4,0.7,0.7
	c0.2,0.3,0.3,0.6,0.3,0.9c0.1,1-0.4,2.5-1.2,3c-0.5,0.3-1.2,0.3-2.1,0.1c-0.3-0.1-0.5-0.2-0.6-0.4C36.9,92.2,36.8,92,36.9,91.7
	 M34.9,92.2l-0.1,0.2c0.2,0.1,0.4,0.1,0.6,0.1l0.4,0.1c0.2,0,0.4,0.1,0.6,0.2c0.1,0,0.2,0.1,0.4,0.1l0.4,0.1c1,0.3,2.1,0.5,3.1,0
	c0.7-0.3,1.2-1,1.4-1.9c0.3-1,0.1-1.8-0.4-2.4c-0.5-0.6-1.3-1.1-2.4-1.4c-0.2,0-0.4-0.1-0.5-0.1c-0.5-0.1-1-0.2-1.5-0.4
	c-0.2-0.1-0.4-0.1-0.6-0.2l-0.1,0.2c0.2,0.1,0.3,0.1,0.5,0.2c0.1,0.1,0.2,0.1,0.2,0.2c0,0.1,0.1,0.1,0,0.2c0,0.1,0,0.2-0.1,0.4
	l-1,3.8c0,0.1-0.1,0.3-0.1,0.4c-0.1,0.2-0.2,0.2-0.4,0.2C35.3,92.2,35.1,92.2,34.9,92.2 M26,88l-0.1,0.2c0.1,0.1,0.3,0.1,0.4,0.2
	l0.3,0.1c0.2,0.1,0.3,0.2,0.5,0.3l0.3,0.1c0.1,0.1,0.3,0.1,0.4,0.2l0.1-0.2c-0.2-0.1-0.3-0.2-0.5-0.3c-0.1-0.1-0.1-0.1-0.1-0.2
	c0-0.1,0-0.2,0.1-0.4c0.4-0.9,1.6-3.1,1.7-3.3l-0.1,5.2l0.3,0.1l4.1-3.4L31.5,90c-0.1,0.1-0.1,0.2-0.2,0.3c0,0.1-0.1,0.1-0.2,0.2
	c0,0-0.1,0-0.2,0c-0.2,0-0.3-0.1-0.4-0.2l-0.1,0.2c0.2,0.1,0.3,0.2,0.5,0.2l0.3,0.2c0.2,0.1,0.4,0.2,0.6,0.3l0.4,0.2
	c0.2,0.1,0.4,0.2,0.5,0.3l0.1-0.2c-0.2-0.1-0.3-0.2-0.4-0.3c-0.1-0.1-0.1-0.1-0.2-0.2c0-0.1,0-0.1,0-0.2c0-0.1,0.1-0.2,0.1-0.3
	l1.8-3.5c0.1-0.1,0.1-0.2,0.2-0.3c0.1-0.1,0.1-0.1,0.2-0.1c0.1,0,0.1,0,0.2,0c0.2,0,0.3,0.1,0.5,0.2l0.1-0.2l-1.4-0.7L29.8,89
	l0.1-5.4l-1.4-0.7l-0.1,0.2c0.2,0.1,0.3,0.2,0.4,0.3c0.1,0.1,0.1,0.1,0.1,0.3c0,0.1,0,0.3-0.1,0.5c-0.3,0.8-1.4,2.8-1.5,3.1
	c-0.1,0.2-0.2,0.4-0.3,0.6c-0.1,0.1-0.2,0.2-0.3,0.3c-0.1,0.1-0.2,0.1-0.3,0.1C26.3,88.1,26.1,88,26,88 M19.3,30.8L19.3,30.8z
	 M21.8,30.8L21.8,30.8L21.8,30.8z M24.3,30.8L24.3,30.8z M26.9,30.8L26.9,30.8z M29.4,30.8L29.4,30.8L29.4,30.8z M31.9,30.8
	L31.9,30.8z M49.9,53.6L49.9,53.6v-0.5V53.6z M54.7,59.4l0.6,0.1c0.3-1.6,1.7-2.8,3.4-2.8s3.1,1.2,3.4,2.8l0.6-0.1
	c-0.4-1.9-2-3.3-4-3.3C56.7,56.1,55.1,57.5,54.7,59.4 M44.5,59.5l0.6-0.1c-0.4-1.9-2-3.3-4-3.3c-2,0-3.6,1.4-4,3.3l0.6,0.1
	c0.3-1.6,1.7-2.8,3.4-2.8C42.7,56.8,44.2,57.9,44.5,59.5 M54.7,47.5l0.6,0.1c0.3-1.6,1.7-2.8,3.4-2.8c1.7,0,3.1,1.2,3.4,2.8l0.6-0.1
	c-0.4-1.9-2-3.3-4-3.3C56.7,44.2,55.1,45.6,54.7,47.5 M44.5,47.6l0.6-0.1c-0.4-1.9-2-3.3-4-3.3c-2,0-3.6,1.4-4,3.3l0.6,0.1
	c0.3-1.6,1.7-2.8,3.4-2.8C42.7,44.8,44.2,46,44.5,47.6 M49.9,44.2L49.9,44.2c-2,0-3.6,1.4-4,3.3l0.6,0.1c0.3-1.6,1.7-2.8,3.4-2.8
	c1.7,0,3.1,1.2,3.4,2.8l0.6-0.1C53.5,45.6,51.9,44.2,49.9,44.2 M49.9,41.3v0.5V41.3z M44.5,36.6l0.6-0.1c-0.3-1.3-1.4-2.3-2.8-2.3
	c-0.5,0-0.9,0.1-1.3,0.3c-0.4-0.2-0.8-0.3-1.3-0.3c-1.4,0-2.5,1-2.8,2.3l0.6,0.1c0.2-1,1.1-1.8,2.2-1.8c0.2,0,0.4,0,0.6,0.1
	c0.2,0.1,0.4,0.2,0.6,0.3c0.2-0.1,0.4-0.2,0.6-0.3c0.2-0.1,0.4-0.1,0.6-0.1C43.4,34.8,44.3,35.6,44.5,36.6 M51.2,28.9
	c0,0.7-0.6,1.3-1.3,1.3c-0.7,0-1.3-0.6-1.3-1.3c0-0.7,0.6-1.3,1.3-1.3C50.6,27.6,51.2,28.2,51.2,28.9 M51.8,28.9
	c0-1-0.8-1.9-1.9-1.9c-1,0-1.9,0.8-1.9,1.9c0,1,0.8,1.9,1.9,1.9C50.9,30.8,51.8,29.9,51.8,28.9 M53.3,36.6l0.6-0.1
	c-0.3-1.3-1.4-2.3-2.8-2.3c-0.5,0-0.9,0.1-1.3,0.3c-0.4-0.2-0.8-0.3-1.3-0.3c-1.4,0-2.5,1-2.8,2.3l0.6,0.1c0.2-1,1.1-1.8,2.2-1.8
	c0.2,0,0.4,0,0.6,0.1c0.2,0.1,0.4,0.2,0.6,0.3c0.2-0.1,0.4-0.2,0.6-0.3c0.2-0.1,0.4-0.1,0.6-0.1C52.2,34.8,53.1,35.6,53.3,36.6
	 M62.2,36.6l0.6-0.1c-0.3-1.3-1.4-2.3-2.8-2.3c-0.5,0-0.9,0.1-1.3,0.3c-0.4-0.2-0.8-0.3-1.3-0.3c-1.4,0-2.5,1-2.8,2.3l0.6,0.1
	c0.2-1,1.1-1.8,2.2-1.8c0.2,0,0.4,0,0.6,0.1c0.2,0.1,0.4,0.2,0.6,0.3c0.2-0.1,0.4-0.2,0.6-0.3c0.2-0.1,0.4-0.1,0.6-0.1
	C61.1,34.8,62,35.6,62.2,36.6 M67.9,30.8L67.9,30.8L67.9,30.8z M70.4,30.8L70.4,30.8L70.4,30.8z M72.9,30.8L72.9,30.8z M75.5,30.8
	L75.5,30.8L75.5,30.8z M78,30.8L78,30.8L78,30.8z M80.5,30.8L80.5,30.8z M78.8,35.5H78c0.2,0.2,0.4,0.5,0.5,0.9c0,0.1,0,0.1,0,0.2
	l0.6-0.1c0,0,0,0,0-0.1l0,0C79.1,36.1,79,35.8,78.8,35.5 M73.6,36.4C73.6,36.4,73.6,36.4,73.6,36.4l0.6,0.2c0-0.1,0-0.1,0-0.2h-0.2
	h0.2c0.1-0.3,0.3-0.6,0.5-0.9l0,0c0.4-0.4,1-0.7,1.6-0.7c0.6,0,1.2,0.3,1.6,0.7h0.8c-0.5-0.8-1.4-1.3-2.4-1.3c-1,0-1.9,0.5-2.4,1.3
	l0,0C73.8,35.8,73.7,36.1,73.6,36.4L73.6,36.4z M72.2,35.5h-0.8c0.2,0.2,0.4,0.5,0.5,0.9l0,0c0,0.1,0,0.1,0,0.2l0.6-0.1
	c0,0,0,0,0-0.1C72.5,36.1,72.4,35.8,72.2,35.5 M67,36.4C67,36.4,67,36.4,67,36.4l0.6,0.2c0-0.1,0-0.1,0-0.2h-0.2h0.2
	c0.1-0.3,0.3-0.6,0.5-0.9l0,0c0.4-0.4,1-0.7,1.6-0.7c0.6,0,1.2,0.3,1.6,0.7h0.8c-0.5-0.8-1.4-1.3-2.4-1.3s-1.9,0.5-2.4,1.3
	C67.2,35.8,67.1,36.1,67,36.4 M71.9,48.5l0.6-0.1c-0.3-1.3-1.4-2.3-2.8-2.3s-2.5,1-2.8,2.3l0.6,0.1c0.2-1,1.1-1.8,2.2-1.8
	C70.8,46.7,71.7,47.5,71.9,48.5 M78.6,48.5l0.6-0.1c-0.3-1.3-1.4-2.3-2.8-2.3c-1.4,0-2.5,1-2.8,2.3l0.6,0.1c0.2-1,1.1-1.8,2.2-1.8
	C77.5,46.7,78.4,47.5,78.6,48.5 M85.2,48.5l0.6-0.1c-0.3-1.3-1.4-2.3-2.8-2.3c-1.4,0-2.5,1-2.8,2.3l0.6,0.1c0.2-1,1.1-1.8,2.2-1.8
	C84.1,46.7,85,47.5,85.2,48.5 M71.9,60.4l0.6-0.1C72.3,59,71.2,58,69.8,58s-2.5,1-2.8,2.3l0.6,0.1c0.2-1,1.1-1.8,2.2-1.8
	C70.8,58.6,71.7,59.4,71.9,60.4 M78.6,60.4l0.6-0.1C78.9,59,77.8,58,76.4,58c-1.4,0-2.5,1-2.8,2.3l0.6,0.1c0.2-1,1.1-1.8,2.2-1.8
	C77.5,58.6,78.4,59.4,78.6,60.4 M25.6,60.4l0.6-0.1C25.9,59,24.8,58,23.4,58c-1.4,0-2.5,1-2.8,2.3l0.6,0.1c0.2-1,1.1-1.8,2.2-1.8
	C24.5,58.6,25.4,59.4,25.6,60.4 M32.2,60.4l0.6-0.1C32.6,59,31.4,58,30,58c-1.4,0-2.5,1-2.8,2.3l0.6,0.1c0.2-1,1.1-1.8,2.2-1.8
	C31.1,58.6,32,59.4,32.2,60.4 M21.8,35.5H21c-0.2,0.3-0.3,0.6-0.4,0.9c0,0,0,0,0,0.1l0.6,0.1c0-0.1,0-0.1,0-0.2l0,0
	C21.4,36.1,21.5,35.8,21.8,35.5 M25.6,36.6l0.6-0.1c0,0,0,0,0-0.1c-0.1-0.3-0.2-0.6-0.4-0.9c-0.5-0.8-1.4-1.3-2.4-1.3
	c-1,0-1.9,0.5-2.4,1.3h0.8c0.4-0.4,1-0.7,1.6-0.7c0.6,0,1.2,0.3,1.6,0.7l0,0c0.2,0.2,0.4,0.5,0.5,0.9h0.2h-0.2
	C25.5,36.5,25.6,36.5,25.6,36.6 M28.4,35.5h-0.8c-0.2,0.3-0.3,0.6-0.4,0.9l0,0c0,0,0,0,0,0.1l0.6,0.1c0-0.1,0-0.1,0-0.2
	C28,36.1,28.2,35.8,28.4,35.5 M32.2,36.6l0.6-0.1c0,0,0,0,0-0.1l0,0c-0.1-0.3-0.2-0.6-0.4-0.9l0,0c-0.5-0.8-1.4-1.3-2.4-1.3
	c-1,0-1.9,0.5-2.4,1.3h0.8c0.4-0.4,1-0.7,1.6-0.7c0.6,0,1.2,0.3,1.6,0.7l0,0c0.2,0.2,0.4,0.5,0.5,0.9h0.2h-0.2
	C32.2,36.5,32.2,36.5,32.2,36.6 M27.2,48.4l0.6,0.1c0.2-1,1.1-1.8,2.2-1.8c1.1,0,2,0.8,2.2,1.8l0.6-0.1c-0.3-1.3-1.4-2.3-2.8-2.3
	C28.6,46.1,27.5,47.1,27.2,48.4 M20.6,48.4l0.6,0.1c0.2-1,1.1-1.8,2.2-1.8c1.1,0,2,0.8,2.2,1.8l0.6-0.1c-0.3-1.3-1.4-2.3-2.8-2.3
	C22,46.1,20.9,47.1,20.6,48.4 M14,48.4l0.6,0.1c0.2-1,1.1-1.8,2.2-1.8c1.1,0,2,0.8,2.2,1.8l0.6-0.1c-0.3-1.3-1.4-2.3-2.8-2.3
	C15.4,46.1,14.2,47.1,14,48.4 M13.1,53C13,51.9,13,50.7,13,49.5c0-2.7,0.3-5.3,0.8-7.8h20.3v-0.6h-2.5v-2h-0.3h0.3v-2
	c0-0.2,0-0.4-0.1-0.6h-0.7c0.1,0.2,0.2,0.4,0.2,0.6v2v2h-1.9v-2h-0.3h0.3v-2c0-0.2,0.1-0.4,0.2-0.6l0,0c0.2-0.2,0.4-0.3,0.7-0.3
	c0.3,0,0.6,0.1,0.7,0.3h0.7c-0.2-0.4-0.5-0.7-1-0.9h-0.7h0.7c-0.2-0.1-0.3-0.1-0.5-0.1c-0.2,0-0.3,0-0.5,0.1l0,0
	c-0.4,0.1-0.8,0.5-1,0.9l0,0c-0.1,0.2-0.1,0.4-0.1,0.6v2v2H25v-2h-0.3H25v-2c0-0.2,0-0.4-0.1-0.6h-0.7c0.1,0.2,0.2,0.4,0.2,0.6v2v2
	h-1.9v-2h-0.3h0.3v-2c0-0.2,0.1-0.4,0.2-0.6l0,0c0.2-0.2,0.4-0.3,0.7-0.3c0.3,0,0.6,0.1,0.7,0.3h0.7c-0.2-0.4-0.5-0.7-1-0.9h-0.7
	h0.7c-0.2-0.1-0.3-0.1-0.5-0.1c-0.2,0-0.3,0-0.5,0.1l0,0c-0.4,0.1-0.8,0.5-1,0.9c-0.1,0.2-0.1,0.4-0.1,0.6v2v2h-3.5v-2H18h0.3v-2
	c0-0.2,0-0.4-0.1-0.6h-0.7c0.1,0.2,0.2,0.4,0.2,0.6v2v2h-1.9v-2h-0.3h0.3v-2c0-0.2,0.1-0.4,0.2-0.6l0,0c0.2-0.2,0.4-0.3,0.7-0.3
	c0.3,0,0.5,0.1,0.7,0.3h0.7c-0.2-0.4-0.5-0.7-1-0.9h-0.7h0.7c-0.2-0.1-0.3-0.1-0.5-0.1c-0.2,0-0.3,0-0.5,0.1l0,0
	c-0.3,0.1-0.5,0.2-0.7,0.4c0.1-0.3,0.3-0.7,0.4-1c0.2-0.1,0.5-0.1,0.7-0.1c0.6,0,1.2,0.3,1.6,0.7l0,0c0.2,0.2,0.4,0.5,0.5,0.9h0.2
	h-0.2c0,0.1,0,0.1,0,0.2l0.6-0.1c0,0,0,0,0-0.1c-0.1-0.3-0.2-0.6-0.4-0.9c-0.5-0.8-1.4-1.3-2.4-1.3c-0.1,0-0.3,0-0.4,0
	c0.2-0.3,0.3-0.6,0.5-1H19V32c0-0.2,0.1-0.3,0.3-0.3s0.3,0.1,0.3,0.3v1.3h1.9V32c0-0.2,0.1-0.3,0.3-0.3c0.2,0,0.3,0.1,0.3,0.3v1.3
	H24V32c0-0.2,0.1-0.3,0.3-0.3c0.2,0,0.3,0.1,0.3,0.3v1.3h1.9V32c0-0.2,0.1-0.3,0.3-0.3c0.2,0,0.3,0.1,0.3,0.3v1.3h1.9V32
	c0-0.2,0.1-0.3,0.3-0.3c0.2,0,0.3,0.1,0.3,0.3v1.3h1.9V32c0-0.2,0.1-0.3,0.3-0.3c0.2,0,0.3,0.1,0.3,0.3v1.3h1.3h0.6v0.3v7.5h0
	l0,11.9h-2.5v-4.1c0-0.9-0.7-1.6-1.6-1.6c-0.9,0-1.6,0.7-1.6,1.6V53H25v-4.1c0-0.9-0.7-1.6-1.6-1.6c-0.9,0-1.6,0.7-1.6,1.6V53h-3.5
	v-4.1c0-0.9-0.7-1.6-1.6-1.6c-0.9,0-1.6,0.7-1.6,1.6V53L13.1,53L13.1,53L13.1,53z M15.8,53v-4.1c0-0.5,0.4-0.9,0.9-0.9
	s0.9,0.4,0.9,0.9V53C17.7,53,15.8,53,15.8,53z M22.5,53v-4.1c0-0.5,0.4-0.9,0.9-0.9c0.5,0,0.9,0.4,0.9,0.9V53H22.5z M29.1,53v-4.1
	c0-0.5,0.4-0.9,0.9-0.9c0.5,0,0.9,0.4,0.9,0.9V53C31,53,29.1,53,29.1,53z M13.2,53.6h20.9v11.3h-2.5v-4.1c0-0.9-0.7-1.6-1.6-1.6
	c-0.9,0-1.6,0.7-1.6,1.6v4.1H25v-4.1c0-0.9-0.7-1.6-1.6-1.6c-0.9,0-1.6,0.7-1.6,1.6v4.1h-3.5v-4.1c0-0.9-0.7-1.6-1.6-1.6
	c-0.9,0-1.6,0.7-1.6,1.6v1.2c-0.2-0.6-0.4-1.1-0.6-1.7c0.2-1,1.1-1.7,2.2-1.7c1.1,0,2,0.8,2.2,1.8l0.6-0.1C19.3,59,18.2,58,16.8,58
	c-1,0-1.9,0.6-2.4,1.4C13.8,57.5,13.4,55.6,13.2,53.6 M15.8,63.7v-2.8c0-0.5,0.4-0.9,0.9-0.9s0.9,0.4,0.9,0.9v4.1h-1.3
	C16.2,64.5,16,64.1,15.8,63.7 M22.5,64.9v-4.1c0-0.5,0.4-0.9,0.9-0.9c0.5,0,0.9,0.4,0.9,0.9v4.1H22.5z M29.1,64.9v-4.1
	c0-0.5,0.4-0.9,0.9-0.9c0.5,0,0.9,0.4,0.9,0.9v4.1H29.1z M16.7,65.5h17.5l0,1.9H17.7C17.3,66.8,17,66.2,16.7,65.5 M18,68h14.5v6.9
	h-0.9v-4.1c0-0.9-0.7-1.6-1.6-1.6c-0.9,0-1.6,0.7-1.6,1.6v4.1H25v-4.1c0-0.9-0.7-1.6-1.6-1.6c-0.1,0-0.2,0-0.3,0
	c-0.7,0.1-1.3,0.8-1.3,1.5v2.5C20.4,71.7,19.1,69.9,18,68 M22.5,73.4L22.5,73.4l0-2.6c0-0.5,0.3-0.8,0.8-0.9c0.1,0,0.1,0,0.2,0
	c0.5,0,0.9,0.4,0.9,0.9v4.1h-1.1c-0.3-0.3-0.5-0.6-0.8-0.9L22.5,73.4L22.5,73.4z M29.1,74.9v-4.1c0-0.5,0.4-0.9,0.9-0.9
	c0.5,0,0.9,0.4,0.9,0.9v4.1C31,74.9,29.1,74.9,29.1,74.9z M23.9,75.5h8.7v1.9h-6.6C25.2,76.8,24.5,76.2,23.9,75.5 M34.1,69.9v9.4
	h-0.9V68h0.9C34.1,68,34.1,69.9,34.1,69.9z M26.7,78h5.8v1.9H34h6.8h0.6H42V78h6v3.1h-2.2v0.6h7.9v-0.6h-1.9V78h6v1.9h0.6h8.8V78
	h5.8c-6.3,5.1-14.4,8.1-23.2,8.1C41.1,86.2,33,83.1,26.7,78 M73.9,77.4h-6.6v-1.9h8.7C75.3,76.2,74.6,76.8,73.9,77.4 M76.5,74.9
	h-1.1v-4.1c0-0.5,0.4-0.9,0.9-0.9c0.1,0,0.1,0,0.2,0c0.4,0.1,0.8,0.5,0.8,0.9v2.6l0,0V74C77.1,74.3,76.8,74.6,76.5,74.9 M69.8,69.9
	c0.5,0,0.9,0.4,0.9,0.9v4.1h-1.9v-4.1C68.8,70.3,69.3,69.9,69.8,69.9 M76.7,69.3c-0.1,0-0.2,0-0.3,0c-0.9,0-1.6,0.7-1.6,1.6v4.1
	h-3.5v-4.1c0-0.9-0.7-1.6-1.6-1.6c-0.9,0-1.6,0.7-1.6,1.6v4.1h-0.9V68h14.5c-1.1,1.9-2.4,3.7-3.8,5.3v-2.5
	C78,70.1,77.4,69.5,76.7,69.3 M66.6,68v11.3h-0.9v-9.4V68H66.6L66.6,68z M82.1,67.4H65.7l0-1.9h17.5C82.8,66.2,82.5,66.8,82.1,67.4
	 M83.4,64.9h-1.3v-4.1c0-0.5,0.4-0.9,0.9-0.9c0.5,0,0.9,0.4,0.9,0.9v2.8C83.8,64.1,83.6,64.5,83.4,64.9 M76.4,59.9
	c0.5,0,0.9,0.4,0.9,0.9v4.1h-1.9v-4.1C75.5,60.3,75.9,59.9,76.4,59.9 M69.8,59.9c0.5,0,0.9,0.4,0.9,0.9v4.1h-1.9v-4.1
	C68.8,60.3,69.3,59.9,69.8,59.9 M83,59.3c-0.9,0-1.6,0.7-1.6,1.6v4.1H78v-4.1c0-0.9-0.7-1.6-1.6-1.6c-0.9,0-1.6,0.7-1.6,1.6v4.1
	h-3.5v-4.1c0-0.9-0.7-1.6-1.6-1.6c-0.9,0-1.6,0.7-1.6,1.6v4.1h-2.5V53.6h20.9c-0.2,2-0.6,3.9-1.1,5.8C85,58.6,84.1,58,83,58
	c-1.4,0-2.5,1-2.8,2.3l0.6,0.1c0.2-1,1.1-1.8,2.2-1.8c1.1,0,1.9,0.7,2.2,1.7c-0.2,0.6-0.4,1.1-0.6,1.7v-1.2
	C84.6,60,83.9,59.3,83,59.3 M83,48c0.5,0,0.9,0.4,0.9,0.9V53h-1.9v-4.1C82.1,48.4,82.5,48,83,48 M76.4,48c0.5,0,0.9,0.4,0.9,0.9V53
	h-1.9v-4.1C75.5,48.4,75.9,48,76.4,48 M69.8,48c0.5,0,0.9,0.4,0.9,0.9V53h-1.9v-4.1C68.8,48.4,69.3,48,69.8,48 M86.6,53h-2v-4.1
	c0-0.9-0.7-1.6-1.6-1.6c-0.9,0-1.6,0.7-1.6,1.6V53H78v-4.1c0-0.9-0.7-1.6-1.6-1.6c-0.9,0-1.6,0.7-1.6,1.6V53h-3.5v-4.1
	c0-0.9-0.7-1.6-1.6-1.6c-0.9,0-1.6,0.7-1.6,1.6V53h-2.5l0-11.9h0v-7.8h0.6h1.3V32c0-0.2,0.1-0.3,0.3-0.3c0.2,0,0.3,0.1,0.3,0.3v1.3
	h1.9V32c0-0.2,0.1-0.3,0.3-0.3c0.2,0,0.3,0.1,0.3,0.3v1.3h1.9V32c0-0.2,0.1-0.3,0.3-0.3c0.2,0,0.3,0.1,0.3,0.3v1.3h1.9V32
	c0-0.2,0.1-0.3,0.3-0.3c0.2,0,0.3,0.1,0.3,0.3v1.3h1.9V32c0-0.2,0.1-0.3,0.3-0.3c0.2,0,0.3,0.1,0.3,0.3v1.3h1.9V32
	c0-0.2,0.1-0.3,0.3-0.3c0.2,0,0.3,0.1,0.3,0.3v1.3H83c0.2,0.3,0.3,0.6,0.5,1c-0.1,0-0.3,0-0.4,0c-1,0-1.9,0.5-2.4,1.3
	c-0.2,0.3-0.3,0.6-0.4,0.9c0,0,0,0,0,0.1l0.6,0.1c0-0.1,0-0.1,0-0.2h-0.2h0.2c0.1-0.3,0.3-0.6,0.5-0.9l0,0c0.4-0.4,1-0.7,1.6-0.7
	c0.3,0,0.5,0,0.7,0.1c0.1,0.3,0.3,0.7,0.4,1c-0.2-0.2-0.4-0.4-0.7-0.4l0,0c-0.2-0.1-0.3-0.1-0.5-0.1c-0.2,0-0.3,0-0.5,0.1h0.7h-0.7
	c-0.4,0.1-0.8,0.5-1,0.9h0.7c0.2-0.2,0.4-0.3,0.7-0.3c0.3,0,0.5,0.1,0.7,0.3l0,0c0.1,0.2,0.2,0.4,0.2,0.6v2h0.3H84v2h-1.9v-2v-2
	c0-0.2,0.1-0.4,0.2-0.6h-0.7c-0.1,0.2-0.1,0.4-0.1,0.6v2h0.3h-0.3v2H78v-2v-2c0-0.2,0-0.4-0.1-0.6c-0.2-0.4-0.5-0.7-1-0.9l0,0
	c-0.2-0.1-0.3-0.1-0.5-0.1c-0.2,0-0.3,0-0.5,0.1h0.7h-0.7c-0.4,0.1-0.8,0.5-1,0.9h0.7c0.2-0.2,0.4-0.3,0.7-0.3
	c0.3,0,0.6,0.1,0.7,0.3h0c0.1,0.2,0.2,0.4,0.2,0.6v2h0.3h-0.3v2h-1.9v-2v-2c0-0.2,0.1-0.4,0.2-0.6h-0.7c-0.1,0.2-0.1,0.4-0.1,0.6v2
	h0.3h-0.3v2h-3.5v-2v-2c0-0.2,0-0.4-0.1-0.6c-0.2-0.4-0.5-0.7-1-0.9l0,0c-0.2-0.1-0.3-0.1-0.5-0.1s-0.3,0-0.5,0.1H70h-0.7
	c-0.4,0.1-0.8,0.5-1,0.9h0.7c0.2-0.2,0.4-0.3,0.7-0.3c0.3,0,0.6,0.1,0.7,0.3l0,0c0.1,0.2,0.2,0.4,0.2,0.6v2H71h-0.3v2h-1.9v-2v-2
	c0-0.2,0.1-0.4,0.2-0.6h-0.7c-0.1,0.2-0.1,0.4-0.1,0.6v2h0.3h-0.3v2h-2.5v0.6H86c0.6,2.5,0.8,5.1,0.8,7.8
	C86.8,50.7,86.8,51.9,86.6,53 M85.8,41.1h-1.2v-2v-2C85.1,38.4,85.5,39.7,85.8,41.1 M82.7,32.6h-1.2V32c0-0.5-0.4-0.9-0.9-0.9
	s-0.9,0.4-0.9,0.9v0.6h-0.6V32c0-0.5-0.4-0.9-0.9-0.9c-0.5,0-0.9,0.4-0.9,0.9v0.6h-0.6V32c0-0.5-0.4-0.9-0.9-0.9
	c-0.5,0-0.9,0.4-0.9,0.9v0.6h-0.6V32c0-0.5-0.4-0.9-0.9-0.9c-0.5,0-0.9,0.4-0.9,0.9v0.6h-0.6V32c0-0.5-0.4-0.9-0.9-0.9
	c-0.5,0-0.9,0.4-0.9,0.9v0.6h-0.6V32c0-0.5-0.4-0.9-0.9-0.9c-0.5,0-0.9,0.4-0.9,0.9v0.6h-0.6v-1.9v-0.3h15.1
	C81.8,31.2,82.3,31.9,82.7,32.6 M81,29.8H66.3v-0.9h14.1C80.6,29.2,80.8,29.5,81,29.8 M79.9,28.2h-13v-0.9v-0.6h-0.6h-3.5L49.9,15.5
	L37,26.7h-3.5h-0.6v0.6v0.9h-13c6.7-9.3,17.7-15.3,30-15.3C62.3,12.9,73.2,19,79.9,28.2 M19.4,28.9h14.1v0.9H18.8
	C19,29.5,19.2,29.2,19.4,28.9 M33.5,28.2v-0.9l3.8,0l12.6-11l12.6,11l3.8,0v0.9h-4.2L49.9,17.6L37.7,28.2L33.5,28.2L33.5,28.2z
	 M34.1,28.9h2.2v3.8h-2.2C34.1,32.6,34.1,28.9,34.1,28.9z M34.8,70.4V33.3h0.9v36.6v0.6L34.8,70.4C34.8,70.5,34.8,70.4,34.8,70.4z
	 M34.8,71h5v0.8h-5C34.8,71.8,34.8,71,34.8,71z M34.8,72.3h5V73h-5C34.8,73,34.8,72.3,34.8,72.3z M34.8,73.5h5v0.8h-5
	C34.8,74.3,34.8,73.5,34.8,73.5z M34.8,74.8h5v0.8h-5C34.8,75.5,34.8,74.8,34.8,74.8z M34.8,76h5v0.8h-5C34.8,76.8,34.8,76,34.8,76z
	 M34.8,77.3h5V78h-5C34.8,78,34.8,77.3,34.8,77.3z M39.8,79.3h-5v-0.8h5V79.3z M42,68.9v-0.8l2.2-1.9v0.8C44.2,67.1,42,68.9,42,68.9
	z M42,74.9v-5.2l2.2-1.9v7.1H42z M44.2,77.4H42v-1.9h2.2V77.4z M40.7,64.9h-1.9v-4.7c0-0.5,0.4-0.9,0.9-0.9c0.5,0,0.9,0.4,0.9,0.9
	L40.7,64.9L40.7,64.9z M42.3,59.3c0.5,0,0.9,0.4,0.9,0.9v4.7h-1.9v-4.7C41.4,59.7,41.8,59.3,42.3,59.3 M41.1,59.3
	c-0.3-0.4-0.7-0.6-1.3-0.6c-0.1,0-0.2,0-0.3,0c0.4-0.4,1-0.7,1.6-0.7c0.6,0,1.2,0.3,1.6,0.7c-0.1,0-0.2,0-0.3,0
	C41.8,58.6,41.4,58.9,41.1,59.3 M55.6,67.1v-0.8l2.2,1.9v0.8C57.8,68.9,55.6,67.1,55.6,67.1z M55.6,74.9v-7.1l2.2,1.9v5.2H55.6z
	 M57.8,77.4h-2.2v-1.9h2.2V77.4z M60.9,60.2v4.7H59v-4.7c0-0.5,0.4-0.9,0.9-0.9C60.5,59.3,60.9,59.7,60.9,60.2 M57.5,59.3
	c0.5,0,0.9,0.4,0.9,0.9v4.7h-1.9v-4.7C56.5,59.7,56.9,59.3,57.5,59.3 M57.2,58.7c0.4-0.4,1-0.7,1.6-0.7c0.6,0,1.2,0.3,1.6,0.7
	c-0.1,0-0.2,0-0.3,0c-0.5,0-1,0.2-1.3,0.6c-0.3-0.4-0.7-0.6-1.3-0.6C57.4,58.6,57.3,58.6,57.2,58.7 M60,71h5v0.8h-5
	C60,71.8,60,71,60,71z M60,73v-0.8h5V73C65,73,60,73,60,73z M60,74.3v-0.8h5v0.8C65,74.3,60,74.3,60,74.3z M60,74.8h5v0.8h-5
	C60,75.5,60,74.8,60,74.8z M60,76.8V76h5v0.8C65,76.8,60,76.8,60,76.8z M65,78.5v0.8h-5v-0.8H65z M60,78v-0.8h5V78H60z M65,33.3
	v37.1v0.2h-0.9v-0.6V33.3C64.1,33.3,65,33.3,65,33.3z M63.5,28.9h2.2v3.8h-2.2C63.5,32.6,63.5,28.9,63.5,28.9z M56.5,41.1V37
	c0-0.5,0.4-0.9,0.9-0.9c0.5,0,0.9,0.4,0.9,0.9v4.1C58.4,41.1,56.5,41.1,56.5,41.1z M50.2,41.1V37c0-0.5,0.4-0.9,0.9-0.9
	c0.5,0,0.9,0.4,0.9,0.9v4.1L50.2,41.1L50.2,41.1z M59.9,41.1H59V37c0-0.5,0.4-0.9,0.9-0.9c0.5,0,0.9,0.4,0.9,0.9v4.1
	C60.9,41.1,59.9,41.1,59.9,41.1z M58.4,53h-1.9v-4.7c0-0.5,0.4-0.9,0.9-0.9c0.5,0,0.9,0.4,0.9,0.9L58.4,53C58.4,53,58.4,53,58.4,53z
	 M60,47.4c0.5,0,0.9,0.4,0.9,0.9V53H59v-4.7C59,47.8,59.5,47.4,60,47.4 M58.7,47.4c-0.3-0.4-0.7-0.6-1.3-0.6c-0.1,0-0.2,0-0.3,0
	c0.4-0.4,1-0.7,1.6-0.7c0.6,0,1.2,0.3,1.6,0.7c-0.1,0-0.2,0-0.3,0C59.5,46.7,59,47,58.7,47.4 M52.1,48.3V53h-1.9v-4.7
	c0-0.5,0.4-0.9,0.9-0.9C51.7,47.4,52.1,47.8,52.1,48.3 M48.6,47.4c0.5,0,0.9,0.4,0.9,0.9V53h-1.9v-4.7
	C47.7,47.8,48.1,47.4,48.6,47.4 M40.7,53h-1.9v-4.7c0-0.5,0.4-0.9,0.9-0.9c0.5,0,0.9,0.4,0.9,0.9V53z M42.3,47.4
	c0.5,0,0.9,0.4,0.9,0.9V53h-1.9v-4.7C41.4,47.8,41.8,47.4,42.3,47.4 M41.1,47.4c-0.3-0.4-0.7-0.6-1.3-0.6c-0.1,0-0.2,0-0.3,0
	c0.4-0.4,1-0.7,1.6-0.7c0.6,0,1.2,0.3,1.6,0.7c-0.1,0-0.2,0-0.3,0C41.8,46.7,41.4,47,41.1,47.4 M48.6,36.1c0.5,0,0.9,0.4,0.9,0.9
	v4.1l-1.9,0V37C47.7,36.5,48.1,36.1,48.6,36.1 M42.3,36.1c0.5,0,0.9,0.4,0.9,0.9v4.1h-1.9V37C41.4,36.5,41.8,36.1,42.3,36.1
	 M39.8,36.1c0.5,0,0.9,0.4,0.9,0.9v4.1h-1.9V37C38.9,36.5,39.3,36.1,39.8,36.1 M63.5,33.3v7.8H63h-1.4V37c0-0.9-0.7-1.6-1.6-1.6
	c-0.5,0-1,0.2-1.3,0.6c-0.3-0.4-0.7-0.6-1.3-0.6c-0.9,0-1.6,0.7-1.6,1.6v4.1h2.7H55h-2.2V37c0-0.9-0.7-1.6-1.6-1.6
	c-0.5,0-1,0.2-1.3,0.6v5.6h4.6H55h7.5H63h0.5V53h-1.9v-4.7c0-1.6-1.3-2.8-2.8-2.8c-1.6,0-2.8,1.3-2.8,2.8c0,4.1,0,4.7,0,4.7h-3.2
	v-4.7c0-1.6-1.3-2.8-2.8-2.8c-1.6,0-2.8,1.3-2.8,2.8V53h-3.2c0,0,0-0.6,0-4.7c0-1.6-1.3-2.8-2.8-2.8c-1.6,0-2.8,1.3-2.8,2.8V53h-1.9
	V41.7h13.6v-5.6c-0.3-0.4-0.7-0.6-1.3-0.6c-0.9,0-1.6,0.7-1.6,1.6v4.1l-3.2,0c0,0,0,0,0-4.1c0-0.9-0.7-1.6-1.6-1.6
	c-0.5,0-1,0.2-1.3,0.6c-0.3-0.4-0.7-0.6-1.3-0.6c-0.9,0-1.6,0.7-1.6,1.6v4.1h-1.9v-7.8H37V32v-0.1v-0.4c0-0.1,0.2-0.2,0.3-0.2
	c0.2,0,0.3,0.1,0.3,0.3v0.9h1.9v-3.1c0-0.2,0.1-0.3,0.3-0.3c0.2,0,0.3,0.1,0.3,0.3v0.9H42l0-3.1c0-0.2,0.1-0.3,0.3-0.3
	c0.2,0,0.3,0.1,0.3,0.3v0.9h1.9l0-3.1c0-0.2,0.1-0.3,0.3-0.3c0.2,0,0.3,0.1,0.3,0.3v0.9h1.9l0-3.1c0-0.2,0.1-0.3,0.3-0.3
	c0.2,0,0.3,0.1,0.3,0.3v0.9h1.9l0-3.1c0-0.2,0.1-0.3,0.3-0.3c0.2,0,0.3,0.1,0.3,0.3l0,3.1h1.9v-0.9c0-0.2,0.1-0.3,0.3-0.3
	c0.2,0,0.3,0.1,0.3,0.3l0,3.1h1.9V25c0-0.2,0.1-0.3,0.3-0.3c0.2,0,0.3,0.1,0.3,0.3l0,3.1h1.9v-0.9c0-0.2,0.1-0.3,0.3-0.3
	c0.2,0,0.3,0.1,0.3,0.3l0,3.1h1.9v-0.9c0-0.2,0.1-0.3,0.3-0.3c0.2,0,0.3,0.1,0.3,0.3v3.1h1.9v-0.9c0-0.2,0.1-0.3,0.3-0.3
	c0.2,0,0.3,0.1,0.3,0.3v0.4V32v1.3L63.5,33.3L63.5,33.3L63.5,33.3z M38.9,29.3v2.5h-0.6v-0.3c0-0.5-0.4-0.9-0.9-0.9
	c-0.1,0-0.2,0-0.3,0.1v-0.5v-1.3h0.9l12-10.4l12,10.4h0.9v1.3v0.5c-0.1,0-0.2-0.1-0.3-0.1c-0.5,0-0.9,0.4-0.9,0.9v0.3h-0.6v-2.5
	c0-0.5-0.4-0.9-0.9-0.9c-0.5,0-0.9,0.4-0.9,0.9v0.3h-0.6l0-2.5c0-0.5-0.4-0.9-0.9-0.9c-0.5,0-0.9,0.4-0.9,0.9v0.3h-0.6V25
	c0-0.5-0.4-0.9-0.9-0.9C54.4,24,54,24.4,54,25v0.3h-0.6v-2.5c0-0.5-0.4-0.9-0.9-0.9c-0.5,0-0.9,0.4-0.9,0.9v0.3h-0.6l0-2.5
	c0-0.5-0.4-0.9-0.9-0.9c-0.5,0-0.9,0.4-0.9,0.9v2.5h-0.6v-0.3c0-0.5-0.4-0.9-0.9-0.9c-0.5,0-0.9,0.4-0.9,0.9v2.5h-0.6V25
	c0-0.5-0.4-0.9-0.9-0.9c-0.5,0-0.9,0.4-0.9,0.9l0,2.5h-0.6v-0.3c0-0.5-0.4-0.9-0.9-0.9c-0.5,0-0.9,0.4-0.9,0.9v2.5h-0.6v-0.3
	c0-0.5-0.4-0.9-0.9-0.9C39.3,28.4,38.9,28.8,38.9,29.3 M59.4,68v2.3v8.9h-0.9v-9.4V68H59.4L59.4,68z M57.8,67.4l-2.2-1.9h7.9v4.8
	v0.2H60v-0.6v-2.5C60,67.4,57.8,67.4,57.8,67.4z M54.5,75.2v-1.8H54v-6.6v-1.3h0.9v5v0.6v6.3H54v-0.9v-1.2
	C54,75.3,54.5,75.2,54.5,75.2z M50.2,70.1l1.2,0.6l-0.1,2h-2.9l-0.1-2l1.2-0.6L49,68.8l0.9-0.7l0.9,0.7L50.2,70.1L50.2,70.1z
	 M47.1,72.7v0.6h-0.7v-3.4v-2.8h6.9v2.8v3.4h-0.7v-0.6h-0.8l0.2-2.3L51,69.9l0.5-1.2l-1.6-1.2l-1.6,1.2l0.5,1.2l-1.1,0.6l0.2,2.3
	C47.9,72.7,47.1,72.7,47.1,72.7z M53.4,65.5v0.9h-6.9v-0.9h3.5C49.9,65.5,53.4,65.5,53.4,65.5z M52.1,64.9L52.1,64.9h-0.3v-5h0.6v5
	H52.1z M49,59.9v-0.6h-0.3c0-0.7,0.6-1.3,1.3-1.3c0.7,0,1.3,0.6,1.3,1.3h-0.3v0.6h0.3v5h-1.3h-1.3v-5C48.6,59.9,49,59.9,49,59.9z
	 M48,59.9v5h-0.3h-0.3v-5C47.4,59.9,48,59.9,48,59.9z M47.1,59.3v-1.6l2.8-2.1l2.8,2.1v1.6h-0.9c0-1-0.8-1.9-1.9-1.9
	c-1,0-1.9,0.8-1.9,1.9H47.1z M53.4,75.4v0.4v0.6v0.9h-1.6v-1.7C51.8,75.8,53.4,75.4,53.4,75.4z M51.2,81.2h-2.6v-5.4h2.6V81.2z
	 M45.9,74.7v-0.8h1.7v-0.6h4.5v0.6h1.7v0.8l-2.4,0.5h-3.1L45.9,74.7L45.9,74.7z M46.4,76.5v-0.6v-0.4l1.6,0.3v1.7h-1.6
	C46.4,77.4,46.4,76.5,46.4,76.5z M43.9,64.9c0,0,0-0.6,0-4.7c0-1.6-1.3-2.8-2.8-2.8s-2.8,1.3-2.8,2.8v4.7h-1.9V53.6h13.6v-6.3
	c-0.3-0.4-0.7-0.6-1.3-0.6c-0.1,0-0.2,0-0.3,0c0.4-0.4,1-0.7,1.6-0.7c0.6,0,1.2,0.3,1.6,0.7c-0.1,0-0.2,0-0.3,0
	c-0.5,0-1,0.2-1.3,0.6v6.3h13.6v11.3h-1.9v-4.7c0-1.6-1.3-2.8-2.8-2.8c-1.6,0-2.8,1.3-2.8,2.8c0,4.1,0,4.7,0,4.7h-1.6h-1.3v-5h0.6
	v-0.6h-0.3V58H54v-0.6h-0.6L50.2,55v-0.7h-0.3h-0.3V55l-3.2,2.4h-0.6V58h0.6v1.3h-0.3v0.6h0.6v5h-0.9H43.9L43.9,64.9z M45.3,73.4
	v1.8l0.5,0.1v1.2v0.9h-0.9v-6.3v-0.6v-5h0.9v1.3v6.6L45.3,73.4L45.3,73.4z M41.4,69.9v9.4h-0.9v-8.9V68h0.9V69.9z M39.8,67.4v2.5
	v0.6h-3.5v-0.1v-4.9h7.9L42,67.4L39.8,67.4C39.8,67.4,39.8,67.4,39.8,67.4z M18.4,30.4h15.1v0.3v1.9h-0.6V32c0-0.5-0.4-0.9-0.9-0.9
	c-0.5,0-0.9,0.4-0.9,0.9v0.6h-0.6V32c0-0.5-0.4-0.9-0.9-0.9c-0.5,0-0.9,0.4-0.9,0.9v0.6h-0.6V32c0-0.5-0.4-0.9-0.9-0.9
	c-0.5,0-0.9,0.4-0.9,0.9v0.6h-0.6V32c0-0.5-0.4-0.9-0.9-0.9c-0.5,0-0.9,0.4-0.9,0.9v0.6h-0.6V32c0-0.5-0.4-0.9-0.9-0.9
	c-0.5,0-0.9,0.4-0.9,0.9v0.6h-0.6V32c0-0.5-0.4-0.9-0.9-0.9c-0.5,0-0.9,0.4-0.9,0.9v0.6h-1.2C17.5,31.9,18,31.2,18.4,30.4
	 M15.2,41.1H14c0.3-1.4,0.7-2.7,1.2-4.1v2C15.2,39.1,15.2,41.1,15.2,41.1z M12.1,49.5c0,20.7,16.9,37.5,37.8,37.5
	c20.9,0,37.8-16.8,37.8-37.5C87.7,28.8,70.8,12,49.9,12C29,12,12.1,28.8,12.1,49.5 M15.6,79.2l-0.2,0.2c0.1,0.1,0.3,0.2,0.4,0.4
	c0.1,0.1,0.2,0.2,0.3,0.2c0.2,0.2,0.5,0.5,0.7,0.7c0.1,0.1,0.3,0.3,0.4,0.4l0.2-0.2c-0.1-0.2-0.3-0.3-0.4-0.5
	c-0.1-0.1-0.1-0.2-0.1-0.3c0-0.1,0-0.2,0.1-0.4c0.1-0.2,0.2-0.3,0.5-0.6c0.2-0.2,1.6-1.7,2.3-2.1c0.2-0.1,0.5-0.2,0.7-0.2
	c0.2,0,0.4,0,0.6,0.1c0.4,0.2,0.7,0.5,1,0.9c0.1,0.2,0.1,0.4,0.1,0.6c0,0.2-0.1,0.4-0.2,0.6c-0.1,0.2-0.3,0.5-0.6,0.7l-2,2
	c-0.1,0.1-0.2,0.2-0.3,0.2c-0.1,0.1-0.2,0.1-0.2,0.1c-0.1,0-0.2,0-0.2-0.1c-0.2-0.1-0.3-0.2-0.4-0.3L18.1,82
	c0.1,0.1,0.3,0.3,0.4,0.4c0.4,0.3,0.7,0.7,1.1,1.1c0.1,0.1,0.3,0.3,0.4,0.4l0.2-0.2c-0.1-0.1-0.2-0.3-0.3-0.4
	c-0.1-0.1-0.1-0.2-0.1-0.2c0-0.1,0-0.1,0.1-0.2c0.1-0.1,0.1-0.2,0.2-0.3l2.2-2.2c0.2-0.2,0.4-0.4,0.4-0.6c0.1-0.2,0.1-0.4,0.1-0.6
	c0-0.2,0-0.4-0.1-0.6c-0.1-0.2-0.1-0.3-0.2-0.5c-0.1-0.2-0.2-0.3-0.3-0.4c-0.3-0.3-0.5-0.6-0.9-0.8c-0.2-0.1-0.5-0.2-0.8-0.3
	c-0.3,0-0.6,0-0.9,0.1c-0.3,0.1-0.6,0.3-0.9,0.6l-1.6,1.6c-0.2,0.2-0.6,0.6-0.9,0.7c-0.1,0-0.2,0-0.3,0
	C15.9,79.5,15.8,79.4,15.6,79.2 M10.8,72.5l-0.2,0.1c0.1,0.1,0.2,0.2,0.3,0.4c0.3,0.3,0.5,0.7,0.7,1c0.1,0.1,0.2,0.3,0.3,0.4
	l0.2-0.1c-0.1-0.2-0.2-0.3-0.3-0.5c0-0.1,0-0.2,0-0.3c0-0.1,0.1-0.2,0.2-0.3c0.1-0.1,0.3-0.3,0.6-0.4l2.4-1.6l0-0.1L13.5,77l0.7,1
	l0.2-0.1c-0.1-0.2-0.2-0.3-0.2-0.5c0-0.1,0-0.2,0-0.3c0-0.1,0.2-0.2,0.3-0.4c0.7-0.5,2.5-1.7,2.8-1.9c0.2-0.1,0.4-0.3,0.5-0.3
	c0.1-0.1,0.3-0.1,0.4-0.1c0.1,0,0.2,0,0.3,0.1c0.1,0.1,0.3,0.2,0.4,0.4l0.2-0.1c-0.1-0.1-0.2-0.2-0.3-0.4l-0.2-0.3
	c-0.1-0.2-0.2-0.3-0.3-0.5l-0.2-0.3c-0.1-0.2-0.2-0.3-0.3-0.4L17.7,73c0.1,0.2,0.2,0.3,0.3,0.5c0,0.1,0,0.2,0,0.3
	c0,0.1-0.1,0.2-0.2,0.3c-0.1,0.1-0.3,0.3-0.6,0.4l-2.4,1.6l0,0.1l1.5-6L16.1,70l-3.8,2.5c-0.2,0.1-0.4,0.3-0.5,0.3
	c-0.2,0.1-0.3,0.1-0.4,0.1c-0.1,0-0.2,0-0.3-0.1C11,72.8,10.9,72.7,10.8,72.5 M8.8,68.8l-0.2,0.1c0.1,0.2,0.2,0.4,0.3,0.5
	c0.2,0.4,0.5,0.9,0.7,1.3c0.1,0.2,0.2,0.4,0.3,0.5l0.2-0.1C10,71,9.9,70.8,9.9,70.7c0-0.1,0-0.2,0-0.3c0-0.1,0.1-0.1,0.1-0.2
	c0.1-0.1,0.2-0.1,0.3-0.2l3.5-1.8c0.1-0.1,0.3-0.1,0.4-0.1c0.2-0.1,0.3,0,0.4,0.1c0.1,0.1,0.2,0.3,0.3,0.4l0.2-0.1
	c-0.1-0.2-0.2-0.4-0.3-0.5l-0.2-0.4c-0.1-0.2-0.2-0.4-0.3-0.6l-0.2-0.4c-0.1-0.2-0.2-0.4-0.3-0.5l-0.2,0.1c0.1,0.2,0.1,0.3,0.2,0.5
	c0,0.1,0,0.2,0,0.3c0,0.1-0.1,0.1-0.1,0.2c-0.1,0.1-0.2,0.1-0.3,0.2l-3.5,1.8c-0.1,0.1-0.3,0.1-0.3,0.1c-0.1,0-0.2,0-0.2,0
	c-0.1,0-0.1-0.1-0.2-0.1C9,69.1,8.9,68.9,8.8,68.8 M6.2,62.2L6,62.3c0,0.1,0.1,0.2,0.1,0.3c0.1,0.3,0.3,0.7,0.4,1
	c0.1,0.1,0.1,0.3,0.1,0.4L6.9,64c0-0.1-0.1-0.3-0.1-0.5c0.1-0.2,0.2-0.2,0.4-0.2c0.1,0,0.2,0,0.4,0c0.1,0,3.8,0,3.8,0l0.1-0.1
	c-0.9,0.8-1.8,1.5-2.7,2.3c-0.3,0.2-0.5,0.4-0.6,0.5c0,0-0.2,0.2-0.3,0.2c0,0-0.1-0.1-0.1-0.1c0-0.1-0.1-0.1-0.1-0.2
	c0-0.1-0.1-0.2-0.1-0.3l-0.2,0.1c0.1,0.2,0.1,0.3,0.2,0.5c0.2,0.4,0.3,0.8,0.5,1.2C8,67.7,8.1,67.9,8.1,68l0.2-0.1
	c0-0.1-0.1-0.2-0.1-0.3c0-0.1,0-0.1,0-0.2c0,0,0.1-0.1,0.1-0.2c0.1-0.1,0.2-0.2,0.3-0.3l4.1-3.6L12.7,63l-4.9-0.1
	c-0.3,0-0.5,0-0.7,0c-0.2,0-0.3,0-0.4-0.1c-0.1,0-0.2-0.1-0.3-0.2C6.4,62.5,6.3,62.4,6.2,62.2 M5.1,56.6c-0.1,0-0.3,0-0.4,0.1
	c0.1,0.2,0.1,0.4,0.2,0.6c0,0.1,0,0.2,0.1,0.2C5,58,5.1,58.4,5.2,58.9c0,0.2,0.1,0.4,0.1,0.6c0.1,0.4,0.2,0.8,0.2,1.2
	c0,0.2,0.1,0.4,0.1,0.6l0.2,0c0-0.2-0.1-0.3,0-0.5c0-0.1,0-0.2,0.1-0.2c0-0.1,0.1-0.1,0.2-0.1c0.1,0,0.2-0.1,0.4-0.1l3.9-0.8
	c0.1,0,0.3,0,0.4,0c0.2,0,0.3,0.1,0.4,0.3c0.1,0.2,0.1,0.3,0.2,0.5l0.2-0.1c0-0.2-0.1-0.4-0.1-0.6L11.4,59c0-0.1-0.1-0.2-0.1-0.3
	l-0.5-2.4l0-0.2c0-0.1,0-0.2,0-0.2c0-0.1,0-0.2,0-0.3c0-0.1,0-0.2,0-0.3c-0.3,0-0.6,0.1-0.8,0.1c-0.3,0-0.6,0.1-0.9,0.1L9,55.7
	c0.2,0,0.5,0.1,0.7,0.1c0.2,0.1,0.3,0.1,0.4,0.2c0.1,0.1,0.2,0.2,0.3,0.4c0.2,0.3,0.3,0.9,0.3,1.2c0,0.2,0,0.3-0.1,0.4
	c-0.1,0.1-0.2,0.2-0.3,0.3c-0.4,0.2-1.6,0.4-1.9,0.4c-0.1-0.3-0.2-0.7-0.2-1.1c0-0.2,0-0.3,0.1-0.4c0-0.1,0.1-0.2,0.2-0.2
	c0.1-0.1,0.3-0.2,0.5-0.2l-0.1-0.2c-0.2,0-0.3,0.1-0.5,0.1c-0.1,0-0.2,0.1-0.3,0.1L7.5,57c-0.1,0-0.2,0-0.3,0.1
	c-0.2,0-0.3,0.1-0.5,0.1l0.1,0.2c0.2,0,0.3,0,0.5,0c0.1,0,0.2,0.1,0.3,0.2c0.1,0.1,0.2,0.2,0.3,0.3c0.2,0.3,0.2,0.7,0.3,1l-2.4,0.5
	c-0.1-0.5-0.2-1-0.2-1.5c0-0.3,0-0.5,0.1-0.6c0.1-0.2,0.2-0.3,0.3-0.4c0.2-0.1,0.4-0.2,0.5-0.3l0-0.2c-0.2,0-0.3,0.1-0.5,0.1
	C5.9,56.5,5.2,56.6,5.1,56.6 M5,51.2c0.4-0.3,1-0.4,1.5-0.3c0.2,0,0.3,0.1,0.4,0.2c0.1,0.1,0.2,0.2,0.3,0.4c0.1,0.3,0.1,0.6,0.1,0.9
	c0,0.1,0,0.2,0,0.2l-2.6,0.1c0,0,0-0.1,0-0.1c0-0.1,0-0.1,0-0.2C4.6,52,4.6,51.5,5,51.2 M4.4,51c-0.2,0.5-0.1,1.4-0.1,2
	c0,0.3,0,0.7,0,1c0,0.2,0,0.4,0,0.6l0.3,0c0-0.2,0-0.3,0-0.5c0-0.1,0.1-0.2,0.1-0.2c0,0,0.1-0.1,0.2-0.1c0.1,0,0.2,0,0.4,0l4-0.1
	c0.1,0,0.3,0,0.4,0c0.2,0,0.3,0.1,0.3,0.3c0,0.2,0.1,0.3,0.1,0.5l0.2,0c0-0.2,0-0.4,0-0.6l0-0.4c0-0.2,0-0.4,0-0.6l0-0.4
	c0-0.2,0-0.4,0-0.5l-0.2,0c0,0.2,0,0.3,0,0.5c0,0.1-0.1,0.1-0.1,0.2c0,0-0.1,0.1-0.2,0.1c-0.7,0.1-1.4,0.1-2,0.1c0,0,0-0.1,0-0.1
	c0-0.1,0-0.1,0-0.2c0-0.1,0-0.1,0-0.2l0-0.2l2.1-1.6c0.1-0.1,0.2-0.1,0.2-0.2c0.1-0.1,0.1-0.2,0.2-0.3c0.1-0.4,0.1-1.1,0.1-1.5
	l-0.2,0c0,0.1,0,0.2,0,0.3c0,0.1,0,0.1-0.1,0.2c0,0.1-0.1,0.1-0.1,0.2c0,0.1-0.1,0.2-0.3,0.4c-0.2,0.2-0.4,0.3-0.6,0.5
	c-0.2,0.2-0.5,0.4-0.8,0.6c-0.2,0.2-0.4,0.3-0.6,0.5c-0.1-0.2-0.2-0.4-0.3-0.6C7.1,50.4,7,50.4,7,50.3c-0.1-0.1-0.2-0.2-0.3-0.2
	c-0.1-0.1-0.2-0.1-0.3-0.1c-0.3-0.1-0.7-0.1-1,0.1c-0.2,0.1-0.4,0.2-0.5,0.4C4.6,50.6,4.5,50.8,4.4,51 M5.1,44l-0.4-0.1l0,0.2
	c0,0.1,0,0.2-0.1,0.3c0,0.1-0.1,0.2-0.1,0.3c0,0.1-0.1,0.2-0.1,0.3c-0.1,0.4-0.1,0.8,0,1.2c0.1,0.2,0.1,0.4,0.3,0.6
	C4.8,47,5,47.2,5.2,47.3c0.3,0.2,0.8,0.3,1.2,0.2c0.2-0.1,0.3-0.2,0.5-0.3C7,47,7.1,46.9,7.3,46.7c0.1-0.2,0.3-0.4,0.5-0.6
	c0.2-0.2,0.3-0.4,0.4-0.5c0.1-0.2,0.2-0.3,0.3-0.4C8.6,45.1,8.7,45,8.8,45c0.2-0.1,0.5,0,0.7,0.1c0.1,0,0.2,0.1,0.3,0.2
	c0.1,0.1,0.2,0.2,0.2,0.4c0.1,0.3,0,0.9-0.1,1.2c-0.1,0.2-0.2,0.3-0.4,0.4c-0.1,0.1-0.3,0.2-0.5,0.3c-0.2,0.1-0.4,0.1-0.6,0.2l0,0.2
	c0.3,0,0.6,0,0.9,0c0.3,0,0.6,0,0.8,0c0-0.2,0-0.3,0.1-0.5c0-0.1,0.1-0.2,0.1-0.3c0.2-0.5,0.2-1.1,0.1-1.6c-0.1-0.3-0.1-0.5-0.3-0.7
	c-0.1-0.2-0.3-0.4-0.5-0.5C9.3,44,8.8,43.9,8.4,44c-0.2,0.1-0.3,0.1-0.5,0.3c-0.1,0.1-0.3,0.3-0.4,0.5c-0.2,0.2-0.3,0.4-0.5,0.7
	c-0.2,0.2-0.3,0.4-0.4,0.6c-0.1,0.1-0.2,0.2-0.3,0.3c-0.1,0.1-0.2,0.1-0.3,0.1c-0.2,0-0.4,0-0.6-0.1c-0.1,0-0.2-0.1-0.3-0.2
	c-0.1-0.1-0.2-0.2-0.2-0.3c-0.1-0.3,0-0.7,0.1-1c0.1-0.2,0.2-0.3,0.4-0.4c0.1-0.1,0.3-0.2,0.5-0.2c0.2-0.1,0.4-0.1,0.6-0.1l0-0.2
	c-0.2,0-0.3,0-0.5,0l-0.4,0L5.1,44L5.1,44z M5.7,39.1L5.5,39c0,0.2-0.1,0.4-0.1,0.6c-0.1,0.5-0.2,1-0.3,1.5c0,0.2-0.1,0.4-0.1,0.6
	l0.2,0.1c0-0.2,0.1-0.3,0.2-0.5c0-0.1,0.1-0.2,0.2-0.2C5.5,41,5.6,41,5.7,41c0.1,0,0.2,0,0.4,0l3.9,0.8c0.1,0,0.3,0.1,0.4,0.1
	c0.2,0.1,0.2,0.2,0.2,0.4c0,0.2,0,0.3,0,0.5l0.2,0.1c0-0.2,0.1-0.4,0.1-0.6l0.1-0.4c0-0.2,0.1-0.4,0.1-0.6l0.1-0.4
	c0-0.2,0.1-0.4,0.1-0.6l-0.2-0.1c0,0.2-0.1,0.3-0.2,0.5c0,0.1-0.1,0.2-0.2,0.2c-0.1,0-0.1,0.1-0.2,0.1c-0.1,0-0.2,0-0.4,0l-3.9-0.8
	C6.1,40.1,6,40,5.9,40c-0.1,0-0.1-0.1-0.2-0.1c0-0.1-0.1-0.1-0.1-0.2C5.7,39.4,5.7,39.3,5.7,39.1 M9.2,33.1C9,33.1,8.8,33,8.6,33
	c-0.3-0.1-0.5-0.2-0.8-0.3c-0.1-0.1-0.3-0.1-0.4-0.2c0,0.2-0.1,0.4-0.1,0.6c0,0.1-0.1,0.2-0.1,0.2c-0.1,0.3-0.2,0.7-0.3,1l-0.1,0.3
	l-0.2,0.7l-0.1,0.3c-0.1,0.3-0.2,0.6-0.3,0.8l-0.1,0.2C6,36.8,6,36.9,6,37l-0.1,0.2c0,0.1-0.1,0.2-0.1,0.3c0.1,0,0.3,0.1,0.4,0.1
	c0.3,0.1,0.5,0.2,0.8,0.3c0.2,0.1,0.3,0.1,0.5,0.2l0.1-0.2c-0.2-0.1-0.4-0.3-0.6-0.4c-0.1-0.1-0.2-0.2-0.3-0.4
	c-0.1-0.1-0.1-0.3-0.1-0.5c0-0.3,0.1-0.6,0.2-0.9c0.2,0.1,0.5,0.1,0.7,0.2c1.2,0.4,2.5,0.8,3.7,1.2c0.1,0,0.3,0.1,0.3,0.2
	c0.1,0,0.1,0.1,0.2,0.2c0,0.1,0,0.1,0,0.2c0,0.2-0.1,0.3-0.1,0.5l0.2,0.1c0.1-0.2,0.1-0.4,0.2-0.6l0.1-0.4c0.1-0.2,0.1-0.4,0.2-0.6
	l0.1-0.4c0.1-0.2,0.1-0.4,0.2-0.6l-0.2-0.1c-0.1,0.2-0.1,0.3-0.2,0.5c-0.1,0.1-0.1,0.1-0.2,0.2c-0.1,0-0.1,0-0.2,0
	c-0.1,0-0.2,0-0.4-0.1l-2.9-1l-0.8-0.3c-0.3-0.1-0.5-0.2-0.7-0.3c0.1-0.3,0.2-0.6,0.4-0.9c0.1-0.1,0.2-0.2,0.4-0.3
	c0.1-0.1,0.3-0.1,0.5-0.1c0.2,0,0.5,0,0.7,0L9.2,33.1L9.2,33.1z M12.4,30.2c-0.4,0.9-0.7,1.5-0.7,1.5L10.1,30l-0.1,0l0.4,0
	c0.5,0,1,0.1,1.4,0.2C12.1,30.2,12.2,30.2,12.4,30.2 M14.5,29.5l-5.4-0.6L9,29.2l3.2,3.7c0.2,0.2,0.3,0.4,0.4,0.5
	c0.1,0.1,0.2,0.3,0.2,0.4c0,0.1,0.1,0.2,0.1,0.3c0,0.2-0.1,0.3-0.1,0.4l0.2,0.1c0.1-0.1,0.1-0.2,0.2-0.3l0.1-0.2
	c0.1-0.2,0.2-0.3,0.2-0.5l0.2-0.3c0.1-0.1,0.1-0.3,0.2-0.4l-0.2-0.1c-0.1,0.1-0.1,0.3-0.3,0.4c-0.1,0.1-0.2,0-0.3-0.1
	c-0.1,0-0.1-0.1-0.2-0.2c-0.1-0.1-0.2-0.2-0.3-0.4c-0.1-0.2-0.3-0.3-0.5-0.5c0-0.1,0.1-0.1,0.1-0.2l0.2-0.3c0.1-0.2,0.3-0.7,0.5-0.9
	c0-0.1,0.1-0.2,0.1-0.2l0-0.1c0.2,0,0.4,0.1,0.6,0.1c0.2,0,0.4,0,0.6,0.1c0.2,0,0.3,0,0.5,0.1c0.1,0,0.1,0,0.2,0c0,0,0,0,0,0.1
	c0,0,0,0.1,0,0.1c0,0.1,0,0.1-0.1,0.2l-0.2,0.3l0.2,0.1c0.1-0.2,0.2-0.3,0.2-0.5l0.2-0.3c0.1-0.2,0.2-0.4,0.3-0.5l0.2-0.3
	c0.1-0.2,0.2-0.3,0.2-0.5l-0.2-0.1c-0.1,0.1-0.1,0.2-0.2,0.3c0,0-0.1,0.1-0.2,0.1c-0.1,0-0.1,0-0.2,0C14.9,29.5,14.7,29.5,14.5,29.5
	 M17.7,26.5c0.1-0.3,0.1-0.5,0.1-0.8c0-0.3-0.1-0.5-0.2-0.7c-0.2-0.4-0.6-0.7-1-0.8c-0.2,0-0.3,0-0.5,0c-0.2,0-0.4,0.1-0.6,0.2
	c-0.2,0.1-0.5,0.2-0.8,0.3C14.4,24.9,14.2,25,14,25c-0.2,0.1-0.3,0.1-0.5,0.1c-0.1,0-0.2,0-0.3,0c-0.2-0.1-0.4-0.2-0.5-0.4
	c-0.1-0.1-0.1-0.2-0.2-0.3c0-0.1,0-0.2,0-0.3c0-0.3,0.3-0.7,0.6-0.8c0.2-0.1,0.3-0.1,0.5-0.1c0.2,0,0.3,0,0.5,0.1
	c0.2,0.1,0.4,0.1,0.6,0.2l0.1-0.2c-0.1-0.1-0.3-0.2-0.4-0.3c-0.1,0-0.6-0.4-0.6-0.4l-0.3-0.3l-0.1,0.1c-0.1,0.1-0.2,0.2-0.2,0.2
	c-0.1,0.1-0.1,0.1-0.2,0.2c-0.1,0.1-0.2,0.2-0.2,0.2c-0.3,0.3-0.5,0.6-0.6,1c-0.1,0.2-0.1,0.5-0.1,0.7c0,0.2,0.1,0.4,0.2,0.6
	c0.2,0.4,0.6,0.6,1,0.7c0.2,0,0.4,0,0.6,0c0.2,0,0.4-0.1,0.6-0.2c0.2-0.1,0.5-0.2,0.7-0.3c0.2-0.1,0.5-0.2,0.6-0.3
	c0.2-0.1,0.3-0.1,0.5-0.1c0.1,0,0.3,0,0.4,0c0.2,0,0.5,0.2,0.6,0.4c0.1,0.1,0.1,0.2,0.2,0.3c0,0.1,0,0.3,0,0.4
	c-0.1,0.3-0.4,0.8-0.7,0.9c-0.2,0.1-0.3,0.1-0.5,0.2c-0.2,0-0.4,0-0.6,0c-0.2,0-0.4-0.1-0.6-0.2l-0.1,0.2c0.3,0.1,0.5,0.3,0.8,0.4
	c0.2,0.1,0.5,0.3,0.7,0.4c0.1-0.1,0.2-0.3,0.3-0.4c0.1-0.1,0.2-0.2,0.2-0.2C17.2,27.5,17.5,27,17.7,26.5 M21.1,16.7l0.2-0.2
	c-0.1-0.1-0.2-0.2-0.4-0.4l-0.3-0.3l-0.2-0.2l-0.3-0.3L20,15.4c-0.1,0.1-0.2,0.1-0.3,0.2c-0.1,0-0.2,0.1-0.3,0.2
	c-0.1,0.1-0.2,0.1-0.3,0.2c-0.3,0.2-0.6,0.5-0.8,0.9c-0.1,0.2-0.2,0.4-0.2,0.6c0,0.2,0,0.4,0,0.6c0.1,0.4,0.4,0.8,0.8,0.9
	c0.2,0.1,0.3,0.1,0.5,0.1c0.2,0,0.4,0,0.6,0c0.2,0,0.5-0.1,0.8-0.2c0.3-0.1,0.5-0.1,0.7-0.1c0.2,0,0.4,0,0.5,0c0.1,0,0.3,0,0.3,0.1
	c0.2,0.1,0.4,0.3,0.5,0.5c0.1,0.1,0.1,0.2,0.1,0.4c0,0.1,0,0.3-0.1,0.4c-0.2,0.3-0.6,0.7-0.9,0.8C21.9,21,21.7,21,21.5,21
	c-0.2,0-0.4-0.1-0.5-0.1c-0.2-0.1-0.4-0.2-0.6-0.3l-0.2,0.2c0.2,0.2,0.4,0.4,0.6,0.6c0.2,0.2,0.4,0.4,0.6,0.6
	c0.1-0.1,0.2-0.2,0.4-0.3c0.1-0.1,0.2-0.1,0.3-0.2c0.5-0.3,0.9-0.6,1.2-1.1c0.1-0.2,0.2-0.5,0.3-0.7c0.1-0.3,0-0.5,0-0.7
	c-0.1-0.4-0.4-0.8-0.8-1c-0.2-0.1-0.3-0.1-0.5-0.1c-0.2,0-0.4,0-0.7,0.1c-0.2,0-0.5,0.1-0.9,0.2c-0.3,0.1-0.5,0.1-0.7,0.1
	c-0.2,0-0.3,0-0.5,0c-0.1,0-0.2,0-0.3-0.1c-0.2-0.1-0.3-0.3-0.4-0.5c-0.1-0.1-0.1-0.2-0.1-0.3c0-0.1,0-0.2,0.1-0.3
	c0.1-0.3,0.5-0.6,0.8-0.6c0.2,0,0.3-0.1,0.5,0c0.2,0,0.3,0.1,0.5,0.2C20.7,16.5,20.9,16.6,21.1,16.7 M24.6,13.1
	c-0.2-0.2-0.3-0.4-0.4-0.6c0.3-0.2,0.5-0.4,0.9-0.5c0.2-0.1,0.3-0.1,0.5,0c0.2,0,0.3,0.1,0.5,0.2c0.2,0.1,0.4,0.3,0.6,0.4l0.2-0.1
	c-0.1-0.1-0.2-0.3-0.3-0.4l-0.3-0.4l-0.2-0.3c-0.1-0.1-0.2-0.2-0.2-0.4c-0.1,0.1-0.3,0.3-0.4,0.4c-0.1,0-0.1,0.1-0.2,0.2
	c-0.3,0.2-0.6,0.4-0.9,0.6l-0.9,0.6L23,12.9c-0.2,0.2-0.5,0.3-0.7,0.5l-0.2,0.1c-0.1,0-0.1,0.1-0.2,0.1l-0.2,0.1
	c-0.1,0.1-0.2,0.1-0.3,0.2c0.1,0.1,0.2,0.2,0.3,0.3c0.2,0.2,0.3,0.4,0.5,0.7c0.1,0.1,0.2,0.3,0.3,0.4l0.2-0.1
	c-0.1-0.2-0.2-0.4-0.2-0.7c0-0.2,0-0.3,0-0.5c0-0.2,0.1-0.3,0.2-0.5c0.2-0.3,0.5-0.4,0.7-0.6c0.1,0.2,0.3,0.4,0.5,0.6
	c0.8,1,1.5,2.1,2.3,3.1c0.1,0.1,0.2,0.2,0.2,0.3c0,0.1,0,0.2,0,0.2c0,0.1,0,0.1-0.1,0.2c-0.1,0.1-0.3,0.2-0.4,0.3l0.1,0.2
	c0.2-0.1,0.3-0.2,0.5-0.4l0.3-0.2c0.2-0.1,0.4-0.3,0.5-0.4l0.3-0.2c0.2-0.1,0.3-0.2,0.5-0.3L28,16.3c-0.1,0.1-0.3,0.2-0.5,0.3
	c-0.1,0-0.2,0-0.3,0c-0.1,0-0.1,0-0.2-0.1c-0.1-0.1-0.2-0.2-0.2-0.3l-1.8-2.4L24.6,13.1L24.6,13.1z M33.7,13.2
	c0.1-0.2,0.2-0.5,0.2-0.8c0-0.3-0.1-0.7-0.3-1.1l-1-2.1c-0.1-0.2-0.4-0.8-0.4-1.1c0-0.1,0.1-0.2,0.1-0.2c0.1-0.1,0.3-0.2,0.4-0.3
	l-0.1-0.2c-0.2,0.1-0.3,0.2-0.5,0.2c-0.1,0.1-0.2,0.1-0.3,0.2c-0.3,0.1-0.6,0.3-0.9,0.4c-0.2,0.1-0.3,0.1-0.5,0.2l0.1,0.2
	c0.2-0.1,0.4-0.2,0.6-0.2c0.1,0,0.2,0,0.3,0c0.1,0,0.2,0.1,0.3,0.3c0.1,0.1,0.2,0.3,0.4,0.6c0.1,0.2,1.1,2.1,1.2,2.8
	c0,0.3,0,0.5-0.1,0.7c-0.1,0.2-0.2,0.4-0.3,0.5c-0.3,0.3-0.8,0.5-1.2,0.6c-0.2,0-0.4,0-0.6-0.1c-0.2-0.1-0.4-0.2-0.5-0.4
	c-0.2-0.2-0.3-0.4-0.5-0.8l-1.2-2.5C29,10.2,29,10.1,29,10c0-0.1,0-0.2,0-0.2c0-0.1,0.1-0.1,0.2-0.2c0.1-0.1,0.3-0.2,0.4-0.3L29.4,9
	c-0.2,0.1-0.4,0.2-0.5,0.3C28.5,9.5,28,9.8,27.5,10c-0.2,0.1-0.4,0.2-0.5,0.2l0.1,0.2c0.2-0.1,0.3-0.1,0.5-0.2c0.1,0,0.2,0,0.3,0
	c0.1,0,0.1,0.1,0.2,0.1c0.1,0.1,0.1,0.2,0.2,0.3l1.4,2.8c0.1,0.3,0.3,0.5,0.4,0.6c0.2,0.1,0.3,0.3,0.5,0.3c0.2,0.1,0.4,0.1,0.6,0.1
	c0.2,0,0.4,0,0.5-0.1c0.2,0,0.3-0.1,0.5-0.2c0.4-0.1,0.7-0.3,1-0.6C33.4,13.6,33.6,13.4,33.7,13.2 M40,10.5
	c-0.3,0.5-0.9,0.9-1.7,1.1c-0.3,0.1-0.5,0.1-0.7,0c-0.2-0.1-0.3-0.3-0.3-0.5l-1.2-4.2c0,0,0.1,0,0.1,0c0.1,0,0.2-0.1,0.2-0.1
	c0.1,0,0.2-0.1,0.3-0.1c0.4-0.1,0.8-0.2,1.2-0.2c0.3,0,0.6,0.1,0.9,0.2c0.3,0.1,0.5,0.4,0.8,0.7C40.2,8,40.6,9.6,40,10.5 M40.9,10.4
	C41.3,9.8,41.4,9,41.1,8c-0.3-1-0.8-1.6-1.5-1.9c-0.7-0.3-1.7-0.3-2.8,0c-0.2,0.1-0.4,0.1-0.5,0.2c-0.5,0.2-1,0.3-1.5,0.4
	c-0.2,0.1-0.4,0.1-0.6,0.1l0.1,0.2c0.2,0,0.3-0.1,0.5-0.1c0.1,0,0.2,0,0.2,0c0.1,0,0.1,0.1,0.2,0.2c0,0.1,0.1,0.2,0.1,0.3l1.1,3.8
	c0,0.1,0.1,0.3,0.1,0.4c0,0.2-0.1,0.3-0.2,0.4c-0.2,0.1-0.3,0.1-0.5,0.2l0.1,0.2c0.2-0.1,0.4-0.1,0.6-0.2l0.4-0.1
	c0.2-0.1,0.4-0.1,0.6-0.2c0.1,0,0.2-0.1,0.4-0.1l0.4-0.1C39.2,11.7,40.3,11.3,40.9,10.4 M44.9,10.5c0.2,0,0.4,0,0.6-0.1l0-0.2
	c-0.2,0-0.3,0-0.5,0c-0.1,0-0.2,0-0.2-0.1c-0.1,0-0.1-0.1-0.1-0.2c0-0.1-0.1-0.2-0.1-0.4L44,5.7c0-0.1,0-0.3,0-0.4
	c0-0.1,0-0.2,0.1-0.2c0-0.1,0.1-0.1,0.2-0.1c0.2-0.1,0.3-0.1,0.5-0.1l0-0.2c-0.2,0-0.4,0.1-0.6,0.1c-0.5,0.1-1,0.2-1.5,0.2
	c-0.2,0-0.4,0-0.6,0.1l0,0.2c0.2,0,0.3,0,0.5,0c0.1,0,0.2,0,0.2,0.1c0.1,0,0.1,0.1,0.1,0.2c0,0.1,0.1,0.2,0.1,0.4l0.5,3.9
	c0,0.1,0,0.3,0,0.4c0,0.2-0.1,0.3-0.3,0.4c-0.2,0.1-0.3,0.1-0.5,0.1l0,0.2c0.2,0,0.4-0.1,0.6-0.1l0.4-0.1c0.2,0,0.4-0.1,0.7-0.1
	L44.9,10.5L44.9,10.5z M51.6,8.5c-0.1,0.3-0.3,0.6-0.4,0.9c-0.2,0.2-0.4,0.4-0.6,0.5c-0.5,0.2-1.1,0.2-1.6,0
	c-0.3-0.1-0.5-0.3-0.7-0.6c-0.2-0.2-0.3-0.5-0.4-0.9c-0.2-0.7-0.2-1.7,0-2.4c0.1-0.3,0.3-0.6,0.5-0.8c0.2-0.2,0.4-0.4,0.6-0.5
	c0.5-0.2,1.1-0.2,1.5,0C50.7,4.9,51,5,51.1,5.3c0.2,0.2,0.3,0.5,0.5,0.8C51.8,6.8,51.8,7.8,51.6,8.5 M52.6,8.4
	c0.3-0.8,0.4-1.8,0-2.6c-0.2-0.4-0.4-0.7-0.7-0.9c-0.3-0.2-0.6-0.4-1-0.5c-0.8-0.2-1.6-0.3-2.3,0c-0.4,0.1-0.7,0.4-1,0.6
	c-0.3,0.3-0.5,0.6-0.7,1c-0.3,0.8-0.4,1.9,0,2.7c0.2,0.4,0.4,0.7,0.7,0.9c0.3,0.2,0.6,0.4,1,0.5c0.8,0.2,1.6,0.2,2.3-0.1
	C51.7,9.8,52.3,9.2,52.6,8.4 M56.9,7.7c-0.3,0.1-0.6,0-0.9,0c-0.1,0-0.2,0-0.2-0.1l0.4-2.5c0,0,0.1,0,0.1,0c0.1,0,0.1,0,0.2,0
	c0.4,0,0.9,0.1,1.1,0.5c0.3,0.4,0.2,1.1,0,1.5c-0.1,0.1-0.2,0.3-0.3,0.4C57.2,7.6,57,7.7,56.9,7.7 M59.3,11.2l0-0.2
	c-0.1,0-0.2-0.1-0.3-0.1c-0.1,0-0.1-0.1-0.2-0.1c-0.1,0-0.1-0.1-0.2-0.1c-0.1-0.1-0.2-0.2-0.3-0.4C58.3,10,58.2,9.8,58,9.5
	c-0.1-0.3-0.3-0.6-0.4-0.8c-0.1-0.2-0.2-0.5-0.3-0.7c0.2,0,0.4-0.1,0.6-0.2c0.1,0,0.2-0.1,0.3-0.2c0.1-0.1,0.2-0.1,0.3-0.2
	c0.1-0.1,0.2-0.2,0.2-0.3c0.2-0.3,0.2-0.7,0.1-1c0-0.2-0.1-0.4-0.3-0.6c-0.1-0.2-0.3-0.3-0.6-0.5c-0.5-0.3-1.4-0.4-1.9-0.4
	c-0.3-0.1-0.7-0.1-1-0.2c-0.2,0-0.4-0.1-0.6-0.1l0,0.2c0.2,0,0.3,0.1,0.5,0.1c0.1,0,0.2,0.1,0.2,0.1C55,5,55,5.1,55.1,5.2
	c0,0.1,0,0.2,0,0.4l-0.6,3.9c0,0.1-0.1,0.3-0.1,0.4C54.3,10,54.2,10,54,10.1c-0.2,0-0.3,0-0.5,0l0,0.2c0.2,0,0.4,0.1,0.6,0.1
	l0.4,0.1c0.2,0,0.4,0.1,0.6,0.1l0.4,0.1c0.2,0,0.4,0.1,0.5,0.1l0-0.2c-0.2,0-0.3-0.1-0.5-0.1c-0.1,0-0.1-0.1-0.2-0.1
	c0-0.1,0-0.1,0-0.2c0.1-0.6,0.2-1.4,0.3-2c0,0,0.1,0,0.1,0c0.1,0,0.1,0,0.2,0c0,0,0.1,0,0.2,0l0.2,0l1.2,2.3
	c0.1,0.1,0.1,0.2,0.2,0.3c0.1,0.1,0.2,0.2,0.3,0.2C58.3,11.1,58.9,11.2,59.3,11.2 M67.1,7.8l0.1-0.2c-0.2,0-0.3-0.1-0.5-0.2
	c-0.1,0-0.2-0.1-0.3-0.1c-0.3-0.1-0.6-0.2-0.9-0.3c-0.2-0.1-0.3-0.1-0.5-0.2L64.8,7c0.2,0.1,0.4,0.2,0.6,0.3
	c0.1,0.1,0.2,0.1,0.2,0.2c0,0.1,0.1,0.2,0,0.4c0,0.2-0.1,0.4-0.2,0.7c-0.1,0.2-0.6,2.3-1.1,2.9c-0.2,0.2-0.3,0.4-0.5,0.5
	c-0.2,0.1-0.4,0.2-0.6,0.2c-0.4,0-0.9-0.1-1.3-0.4c-0.2-0.1-0.3-0.3-0.4-0.4c-0.1-0.2-0.1-0.4-0.1-0.6c0-0.3,0.1-0.6,0.2-0.9
	l0.9-2.7c0-0.1,0.1-0.3,0.1-0.3c0-0.1,0.1-0.1,0.2-0.2c0.1,0,0.1,0,0.3,0c0.2,0,0.3,0.1,0.5,0.1l0.1-0.2c-0.2-0.1-0.4-0.1-0.6-0.2
	c-0.5-0.1-1-0.3-1.4-0.5c-0.2-0.1-0.4-0.1-0.6-0.2l-0.1,0.2c0.2,0.1,0.3,0.1,0.5,0.2c0.1,0.1,0.2,0.1,0.2,0.2c0,0.1,0,0.1,0,0.2
	c0,0.1,0,0.2-0.1,0.4l-1,3c-0.1,0.3-0.1,0.5-0.1,0.8c0,0.2,0.1,0.4,0.2,0.6c0.1,0.2,0.2,0.3,0.3,0.5c0.1,0.1,0.3,0.2,0.4,0.3
	c0.2,0.1,0.3,0.2,0.5,0.2c0.4,0.2,0.7,0.3,1.1,0.3c0.3,0,0.5,0,0.8-0.1c0.3-0.1,0.5-0.2,0.7-0.5c0.2-0.2,0.4-0.5,0.6-1l0.7-2.2
	c0.1-0.2,0.3-0.8,0.5-1c0.1-0.1,0.2-0.1,0.3-0.1C66.8,7.7,67,7.7,67.1,7.8 M75.5,12.3l0.1-0.2l-1.4-0.8L70,14.4l0,0.1l0.4-5.4
	L69,8.3l-0.1,0.2c0.1,0.1,0.3,0.2,0.4,0.3c0.1,0.1,0.1,0.1,0.1,0.3c0,0.1,0,0.3-0.1,0.5c-0.4,0.8-1.5,2.7-1.7,3
	c-0.1,0.2-0.2,0.4-0.4,0.5c-0.1,0.1-0.2,0.2-0.3,0.3c-0.1,0.1-0.2,0.1-0.3,0.1c-0.2,0-0.3-0.1-0.5-0.2L66,13.4
	c0.1,0.1,0.3,0.1,0.4,0.2l0.3,0.2c0.2,0.1,0.3,0.2,0.5,0.3l0.3,0.2c0.1,0.1,0.3,0.2,0.4,0.3l0.1-0.2c-0.2-0.1-0.3-0.2-0.5-0.3
	c-0.1-0.1-0.1-0.1-0.1-0.2c0-0.1,0-0.2,0.1-0.4c0.4-0.8,1.5-2.6,1.8-3.1c0,0,0-0.1,0-0.1L69,15.2l0.3,0.2l4.3-3.1l-1.9,3.3
	c-0.1,0.1-0.1,0.2-0.2,0.3c-0.1,0.1-0.1,0.1-0.2,0.1c-0.1,0-0.1,0-0.2,0c-0.1,0-0.3-0.1-0.4-0.2L70.5,16c0.1,0.1,0.3,0.2,0.4,0.3
	l0.3,0.2c0.2,0.1,0.4,0.2,0.6,0.3l0.4,0.2c0.2,0.1,0.3,0.2,0.5,0.3l0.1-0.2c-0.1-0.1-0.3-0.2-0.4-0.3c-0.1-0.1-0.1-0.1-0.1-0.2
	c0-0.1,0-0.1,0-0.2c0-0.1,0.1-0.2,0.2-0.3l2-3.4c0.1-0.1,0.1-0.2,0.2-0.3c0.1-0.1,0.1-0.1,0.2-0.1c0.1,0,0.1,0,0.2,0
	C75.2,12.1,75.3,12.2,75.5,12.3 M83.1,19l0.2-0.2c-2.6-2.5,0,0-2.6-2.5c-0.1-0.1-0.1-0.1-0.2-0.2c-0.1-0.1-0.1-0.1-0.2-0.2
	c-0.1-0.1-0.1-0.2-0.2-0.3c-0.4,0.4-0.8,0.9-1.2,1.2l0.2,0.2c0.2-0.1,0.4-0.3,0.6-0.4c0.2-0.1,0.3-0.1,0.5,0
	c0.2,0.1,0.4,0.2,0.7,0.4c0.5,0.3,0.9,0.8,1.3,1.2L76,19.5l-0.2,0.2c2.8,2.8,0,0,2.8,2.8c0.1,0.1,0.1,0.1,0.2,0.2
	c0.1,0.1,0.1,0.1,0.2,0.2c0.1,0.1,0.1,0.2,0.2,0.2c0.2-0.2,0.4-0.4,0.7-0.5c0.2-0.2,0.5-0.4,0.7-0.5l-0.2-0.2
	c-0.2,0.1-0.4,0.3-0.6,0.3c-0.2,0-0.4,0-0.6-0.1c-0.2-0.1-0.5-0.2-0.8-0.5c-0.5-0.4-1-0.9-1.5-1.4L83.1,19L83.1,19z M84,24.9
	c-0.7-0.8-1-1.3-1-1.3l2.3-0.6l0.1-0.1l-0.2,0.3c-0.3,0.4-0.5,0.8-0.8,1.2C84.2,24.6,84.1,24.8,84,24.9 M83.7,27.1l2.9-4.5l-0.2-0.3
	l-4.8,1.2c-0.2,0.1-0.4,0.1-0.6,0.1c-0.2,0-0.3,0-0.4,0c-0.1,0-0.2,0-0.3-0.1c-0.1-0.1-0.2-0.2-0.3-0.3l-0.2,0.1
	c0.1,0.1,0.1,0.2,0.2,0.3l0.2,0.2c0.1,0.1,0.2,0.3,0.3,0.4l0.2,0.3c0.1,0.1,0.2,0.3,0.3,0.4l0.2-0.2c-0.1-0.1-0.2-0.3-0.2-0.4
	c0-0.2,0.1-0.2,0.2-0.3c0.1,0,0.2-0.1,0.3-0.1c0.1,0,0.3-0.1,0.5-0.1c0.2-0.1,0.4-0.1,0.7-0.2c0.1,0.1,0.1,0.1,0.2,0.2l0.2,0.3
	c0.1,0.2,0.5,0.6,0.6,0.8c0.1,0.1,0.1,0.2,0.2,0.2l0,0c-0.1,0.2-0.2,0.3-0.3,0.5c-0.1,0.2-0.2,0.3-0.3,0.5c-0.1,0.2-0.2,0.3-0.3,0.4
	c0,0.1-0.1,0.1-0.1,0.2c0,0,0,0-0.1,0c0,0-0.1,0-0.1-0.1c0,0-0.1-0.1-0.1-0.2l-0.2-0.3L82,26.5c0.1,0.1,0.2,0.3,0.3,0.4l0.2,0.3
	c0.1,0.2,0.2,0.3,0.4,0.5l0.2,0.3c0.1,0.1,0.2,0.3,0.3,0.4l0.2-0.2c-0.1-0.1-0.1-0.2-0.2-0.3c0-0.1,0-0.1,0-0.2c0-0.1,0-0.1,0.1-0.2
	C83.5,27.4,83.6,27.3,83.7,27.1 M89.8,31.7c0.5-0.3,1-0.5,1.5-0.8c-0.2-0.3-0.2-0.6-0.4-0.9c-0.2-0.8-0.6-1.5-1.2-2.1
	c-0.3-0.3-0.7-0.5-1.1-0.7c-0.4-0.1-0.8-0.2-1.2-0.2c-0.8,0.1-1.7,0.5-2.3,1.1c-0.3,0.3-0.4,0.7-0.5,1c-0.1,0.4-0.1,0.8-0.1,1.2
	c0.1,0.6,0.3,1.2,0.7,1.7c0.1,0.2,0.2,0.3,0.3,0.4c0.1,0.1,0.2,0.3,0.3,0.4c0.1,0.1,0.2,0.2,0.3,0.4c0.5-0.3,1.2-0.6,1.8-0.9
	c0.1,0,0.2-0.1,0.2,0c0.1,0,0.1,0,0.2,0.1c0.1,0.1,0.2,0.2,0.3,0.4l0.2-0.1c-0.1-0.1-0.2-0.3-0.2-0.4c-0.2-0.4-0.5-0.9-0.7-1.3
	c-0.1-0.2-0.2-0.4-0.3-0.6l-0.2,0.1c0.1,0.2,0.2,0.4,0.2,0.6c0,0.1,0,0.2,0,0.3c0,0.1-0.1,0.1-0.1,0.2c-0.1,0.1-0.2,0.1-0.3,0.2
	L86,32.4c-0.5-0.4-0.8-1-0.9-1.6c0-0.3,0-0.6,0.1-0.9c0.1-0.3,0.3-0.6,0.6-0.9c0.5-0.5,1.5-1.1,2.2-1.1c0.4,0,0.7,0,0.9,0.1
	c0.3,0.1,0.5,0.2,0.8,0.5c0.3,0.3,0.8,0.9,0.8,1.4c0,0.2,0,0.4-0.1,0.6c-0.1,0.2-0.2,0.3-0.3,0.5c-0.1,0.2-0.3,0.3-0.4,0.5
	L89.8,31.7L89.8,31.7z M92.7,36.5c-0.3,0.4-0.9,0.7-1.4,0.7c-0.2,0-0.3,0-0.5-0.1c-0.1-0.1-0.3-0.2-0.4-0.3
	c-0.2-0.2-0.3-0.6-0.4-0.9c0-0.1,0-0.2,0-0.2l2.5-0.7c0,0,0,0.1,0.1,0.1c0,0.1,0.1,0.1,0.1,0.2C92.9,35.6,93,36.1,92.7,36.5
	 M93.3,36.5c0-0.6-0.3-1.4-0.5-1.9c-0.1-0.3-0.2-0.7-0.3-1c-0.1-0.2-0.1-0.4-0.2-0.6l-0.2,0.1c0,0.2,0.1,0.3,0.1,0.5
	c0,0.1,0,0.2,0,0.2c0,0.1-0.1,0.1-0.2,0.2c-0.1,0-0.2,0.1-0.3,0.1l-3.8,1.2c-0.1,0-0.3,0.1-0.4,0.1c-0.2,0-0.3-0.1-0.4-0.2
	C87,35,87,34.8,86.9,34.7l-0.2,0.1c0.1,0.2,0.1,0.4,0.2,0.6l0.1,0.4c0.1,0.2,0.1,0.4,0.2,0.6l0.1,0.4c0,0.2,0.1,0.3,0.1,0.5l0.2-0.1
	c0-0.2-0.1-0.3-0.1-0.5c0-0.1,0-0.2,0.1-0.2c0,0,0.1-0.1,0.2-0.1c0.6-0.2,1.3-0.4,1.9-0.6c0,0,0,0.1,0,0.1c0,0.1,0,0.1,0,0.2
	c0,0,0,0.1,0,0.2l0,0.1l-1.6,2c-0.1,0.1-0.1,0.2-0.2,0.3c0,0.1-0.1,0.2-0.1,0.4c0,0.4,0.2,1,0.3,1.5l0.2-0.1c0-0.1,0-0.2,0-0.3
	c0-0.1,0-0.1,0-0.2c0-0.1,0-0.2,0.1-0.2c0-0.1,0.1-0.2,0.2-0.4c0.1-0.2,0.3-0.4,0.5-0.7c0.2-0.2,0.4-0.5,0.6-0.7
	c0.2-0.2,0.3-0.4,0.5-0.6c0.1,0.2,0.3,0.4,0.4,0.5c0.1,0.1,0.2,0.1,0.3,0.2c0.1,0.1,0.2,0.1,0.3,0.2c0.1,0,0.2,0.1,0.4,0.1
	c0.4,0,0.7-0.1,1-0.4c0.2-0.1,0.3-0.3,0.4-0.5C93.3,37,93.3,36.8,93.3,36.5 M91.3,42.4l2.3,0.5l0.1,0L93.4,43
	c-0.4,0.2-0.8,0.5-1.3,0.7c-0.2,0.1-0.3,0.2-0.5,0.3C91.4,43,91.3,42.4,91.3,42.4 M90.3,45.8l4.7-2.7L95,42.8l-4.8-1.1
	c-0.2-0.1-0.4-0.1-0.6-0.2c-0.2-0.1-0.3-0.1-0.4-0.2c-0.1-0.1-0.2-0.1-0.2-0.2c-0.1-0.1-0.1-0.3-0.2-0.4l-0.2,0c0,0.1,0,0.2,0.1,0.4
	l0,0.2c0,0.2,0.1,0.4,0.1,0.5l0.1,0.3c0,0.2,0,0.3,0.1,0.5l0.2,0c0-0.1-0.1-0.3,0-0.5c0.1-0.1,0.2-0.2,0.3-0.1c0.1,0,0.2,0,0.3,0.1
	c0.1,0,0.3,0.1,0.5,0.1c0.2,0,0.4,0.1,0.7,0.2c0,0.1,0,0.2,0,0.3l0.1,0.4c0,0.2,0.1,0.7,0.1,1c0,0.1,0,0.2,0,0.3l0,0.1
	c-0.2,0.1-0.3,0.2-0.5,0.3c-0.2,0.1-0.4,0.2-0.5,0.3c-0.2,0.1-0.3,0.2-0.4,0.2c-0.1,0-0.1,0.1-0.2,0.1c0,0,0,0-0.1,0
	c0,0,0-0.1-0.1-0.1c0-0.1,0-0.1-0.1-0.2l-0.1-0.3l-0.3,0c0,0.2,0.1,0.3,0.1,0.5l0.1,0.4c0,0.2,0.1,0.4,0.1,0.6l0.1,0.4
	c0,0.2,0,0.3,0.1,0.5l0.2,0c0-0.1,0-0.2,0-0.4c0-0.1,0-0.1,0.1-0.2c0-0.1,0.1-0.1,0.2-0.2C90.1,46,90.2,45.9,90.3,45.8 M94.8,50.6
	c-0.3,0.3-1,0.4-1.5,0.2c-0.1-0.1-0.3-0.2-0.4-0.3c-0.1-0.1-0.2-0.2-0.2-0.4c-0.1-0.3-0.1-0.8-0.1-1.1l0,0l2.4,0l0,0.1
	c0,0.1,0,0.1,0,0.2C95.1,49.9,95.1,50.3,94.8,50.6 M92.2,50.5c-0.1,0.2-0.2,0.4-0.3,0.5c-0.1,0.1-0.3,0.2-0.4,0.3
	c-0.3,0.1-0.8,0.1-1.1,0c-0.3-0.2-0.5-0.4-0.6-0.7c-0.1-0.3-0.1-0.7,0-1c0-0.1,0.1-0.2,0.2-0.3c0.1-0.1,0.2-0.1,0.3-0.1
	c0.1,0,0.3,0,0.4,0l1.6,0C92.4,49.5,92.4,50.1,92.2,50.5 M95.5,47.3l-0.3,0c0,0.2,0,0.3-0.1,0.5c0,0.1-0.1,0.2-0.1,0.2
	c0,0-0.1,0.1-0.2,0.1c-0.1,0-0.2,0-0.4,0l-4-0.1c-0.1,0-0.3,0-0.4,0c-0.2,0-0.3-0.2-0.3-0.3c0-0.2,0-0.3-0.1-0.5l-0.2,0
	c0,0.2,0,0.4,0,0.6l0,0.4c0,0.2,0,0.4,0,0.6l0,0.4c0,0.1,0,0.2,0,0.4l0,0.3c0,0.4,0,0.7,0.1,1c0.1,0.3,0.2,0.6,0.3,0.8
	c0.1,0.2,0.3,0.4,0.5,0.5c0.4,0.2,1.1,0.3,1.5,0c0.2-0.1,0.3-0.3,0.5-0.5c0.1-0.2,0.2-0.4,0.3-0.6c0-0.1,0-0.1,0-0.2c0,0,0,0,0,0.1
	c0.1,0.1,0.2,0.3,0.3,0.4c0.1,0.1,0.3,0.2,0.4,0.3c0.4,0.2,0.9,0.2,1.2,0c0.2-0.1,0.3-0.2,0.4-0.4c0.1-0.2,0.2-0.4,0.3-0.6
	c0.1-0.5,0.1-0.9,0.1-1.4c0-0.2,0-0.4,0-0.6c0-0.3,0-0.5,0-0.8C95.4,47.7,95.5,47.5,95.5,47.3 M97.9,49.5c0,26.3-21.5,47.6-48,47.6
	c-26.5,0-48-21.3-48-47.6c0-26.3,21.5-47.6,48-47.6C76.4,1.9,97.9,23.3,97.9,49.5 M98.8,49.5C98.8,22.7,76.9,1,49.9,1
	C22.9,1,1,22.7,1,49.5c0,26.8,21.9,48.5,48.9,48.5C76.9,98.1,98.8,76.4,98.8,49.5"/>
</svg>
